<?xml version="1.0" standalone="no"?>
<!DOCTYPE svg PUBLIC "-//W3C//DTD SVG 1.1//EN" "http://www.w3.org/Graphics/SVG/1.1/DTD/svg11.dtd" >
<svg xmlns="http://www.w3.org/2000/svg" xmlns:xlink="http://www.w3.org/1999/xlink" version="1.1">
<metadata></metadata>
<defs>
<font id="greencatregular" horiz-adv-x="1000" >
<font-face units-per-em="1000" ascent="750" descent="-250" />
<missing-glyph horiz-adv-x="250" />
<glyph horiz-adv-x="0" />
<glyph horiz-adv-x="0" />
<glyph unicode="&#xd;" horiz-adv-x="250" />
<glyph unicode=" "  horiz-adv-x="250" />
<glyph unicode="&#x09;" horiz-adv-x="250" />
<glyph unicode="&#xa0;" horiz-adv-x="250" />
<glyph unicode="!" d="M130 148q0 2 0.5 5t2.5 4l350 580q6 10 17 10t17 -10l349 -578q4 -4 3 -11q0 -8 -6 -14t-14 -6h-700q-2 0 -3 0.5t-3 0.5t-3 1t-3 2q-3 0 -5 6q-2 2 -2 8v2zM815 168l-315 521l-315 -521h630zM440 268q0 24 17.5 41.5t42.5 17.5t42.5 -17.5t17.5 -41.5q0 -25 -17.5 -43 t-42.5 -18t-42.5 18t-17.5 43zM500 567q8 0 14 -5.5t6 -13.5v-160q0 -9 -6 -15t-14 -6t-13.5 6t-5.5 15v160q0 8 5.5 13.5t13.5 5.5zM481 268q0 -9 5.5 -15t13.5 -6t14 6t6 15q0 8 -6 13.5t-14 5.5t-13.5 -5.5t-5.5 -13.5z" />
<glyph unicode="*" d="M482 847q5 10 18 10t18 -10l122 -258l283 -37q12 -2 17 -14q2 -12 -6 -20l-206 -195l52 -280q0 -14 -5.5 -19t-18.5 -5q-4 0 -6 2l-250 135l-250 -135q-4 -3 -9 -3q-8 0 -12 4q-8 7 -8 19l52 281l-207 197q-8 9 -5 19q3 12 16 14l283 37zM490 196q3 2 10 2h4q4 0 6 -2 l223 -122l-47 250q0 13 6 19l184 175l-252 34q-11 2 -15 11l-109 228l-109 -229q-3 -11 -15 -11l-252 -33l185 -175q6 -6 6 -19l-47 -250z" />
<glyph unicode="+" d="M500 58q-79 0 -148 30t-120.5 81.5t-81.5 120.5t-30 148q0 78 30 147t81.5 120.5t120.5 81.5t148 30t148 -30t120.5 -81.5t81.5 -120.5t30 -147q0 -79 -30 -148t-81.5 -120.5t-120.5 -81.5t-148 -30zM500 98q71 0 132.5 26.5t108 72.5t73 108t26.5 133t-26.5 132.5 t-73 107.5t-108 72.5t-132.5 26.5q-70 0 -132 -26.5t-108.5 -72.5t-73 -107.5t-26.5 -132.5t26.5 -133t73 -108t108.5 -72.5t132 -26.5zM300 457h181v181q0 8 5.5 13.5t13.5 5.5t14 -5.5t6 -13.5v-181h180q8 0 14 -5.5t6 -13.5t-6 -14t-14 -6h-180v-181q0 -8 -6 -13.5 t-14 -5.5t-13.5 5.5t-5.5 13.5v181h-181q-8 0 -14 6t-6 14t6 13.5t14 5.5z" />
<glyph unicode="-" d="M500 58q-79 0 -148 30t-120.5 81.5t-81.5 120.5t-30 148q0 78 30 147t81.5 120.5t120.5 81.5t148 30t148 -30t120.5 -81.5t81.5 -120.5t30 -147q0 -79 -30 -148t-81.5 -120.5t-120.5 -81.5t-148 -30zM500 777q-70 0 -132 -26.5t-108.5 -72.5t-73 -107.5t-26.5 -132.5 t26.5 -133t73 -108t108.5 -72.5t132 -26.5q71 0 132.5 26.5t108 72.5t73 108t26.5 133t-26.5 132.5t-73 107.5t-108 72.5t-132.5 26.5zM720 438q0 -8 -6 -14t-14 -6h-400q-8 0 -14 6t-6 14t6 13.5t14 5.5h400q8 0 14 -5.5t6 -13.5z" />
<glyph unicode="." d="M470 247l-136 -134q-6 -6 -14 -6q-3 0 -4.5 0.5t-3.5 1.5q-12 5 -12 19v119h-160q-8 0 -14 6t-6 15v479q0 9 6 15t14 6h720q8 0 14 -6t6 -15v-479q0 -9 -6 -15t-14 -6h-390zM840 728h-680v-441h160q8 0 14 -5.5t6 -13.5v-92l108 105q6 6 14 6h378v441zM570 497 q0 -29 -20.5 -49t-49.5 -20t-49.5 20t-20.5 49t20.5 49.5t49.5 20.5t49.5 -20.5t20.5 -49.5zM300 428q-29 0 -49 20t-20 49t20 49.5t49 20.5t49.5 -20.5t20.5 -49.5t-20.5 -49t-49.5 -20zM630 497q0 29 20.5 49.5t49.5 20.5t49.5 -20.5t20.5 -49.5t-20.5 -49t-49.5 -20 t-49.5 20t-20.5 49zM731 497q0 13 -9 21.5t-22 8.5t-21.5 -8.5t-8.5 -21.5q0 -12 8.5 -20.5t21.5 -8.5t22 8.5t9 20.5zM530 497q0 13 -8.5 21.5t-21.5 8.5t-21.5 -8.5t-8.5 -21.5q0 -12 8.5 -20.5t21.5 -8.5t21.5 8.5t8.5 20.5zM270 497q0 -12 8.5 -20.5t21.5 -8.5t21.5 8.5 t8.5 20.5q0 13 -8.5 21.5t-21.5 8.5t-21.5 -8.5t-8.5 -21.5z" />
<glyph unicode="/" d="M880 438q0 -79 -30 -148t-81.5 -120.5t-120.5 -81.5t-148 -30t-148 30t-120.5 81.5t-81.5 120.5t-30 148q0 78 30 147t81.5 120.5t120.5 81.5t148 30t148 -30t120.5 -81.5t81.5 -120.5t30 -147zM160 438q0 -71 26.5 -133t73 -108t108.5 -72.5t132 -26.5q71 0 132.5 26.5 t108 72.5t73 108t26.5 133t-26.5 132.5t-73 107.5t-108 72.5t-132.5 26.5q-70 0 -132 -26.5t-108.5 -72.5t-73 -107.5t-26.5 -132.5zM460 269q-6 -6 -14 -6t-14 6l-121 121q-13 13 0 28q6 6 14 6t14 -6l107 -107l255 255q6 6 14 6t14 -6q7 -5 7 -13t-7 -15z" />
<glyph unicode="2" d="M286 84q1 4 1 8v9q0 26 -10 48.5t-27 39.5t-39.5 26.5t-48.5 9.5q-2 0 -6 -1t-9 -1q-6 0 -12 2t-10 8q-11 20 -19 41t-15 42q-1 6 0.5 12.5t6.5 10.5q50 38 50 99q0 50 -37 87q-3 2 -5.5 5t-7.5 6q-5 4 -6.5 10.5t-0.5 12.5q2 7 7 22.5t11.5 31t15 27.5t17.5 12q2 0 3 -1 q3 0 6 -0.5t6 -0.5q27 0 50.5 9t41.5 25.5t28 39t10 50.5v8.5t-1 8.5q-2 14 10 21q20 11 40.5 19t42.5 15q6 0 11.5 -1t10.5 -6q18 -23 44 -36.5t55 -13.5q25 0 48 9.5t40 26.5q2 3 5 6.5t6 7.5q5 5 10.5 6t11.5 1q22 -6 42.5 -14.5t40.5 -19.5q12 -7 10 -21q-1 -4 -1 -8v-9 q0 -26 10 -48.5t27 -39.5t39.5 -26.5t48.5 -9.5q2 0 6 1t9 1q6 0 12 -2t10 -8q22 -41 34 -83q2 -6 0 -12.5t-7 -10.5q-23 -17 -36.5 -42.5t-13.5 -55.5q0 -31 13.5 -56.5t36.5 -42.5q5 -4 7 -10.5t0 -12.5q-2 -7 -7 -22t-11.5 -31t-15 -28t-17.5 -12q-2 0 -2 1q-4 0 -7 0.5 t-6 0.5q-27 0 -50.5 -9t-41.5 -25.5t-28 -39t-10 -50.5v-8.5t1 -8.5q2 -15 -10 -20q-20 -11 -40.5 -19.5t-42.5 -15.5q-2 -1 -6 -1q-8 0 -16 8q-18 23 -44 36.5t-55 13.5q-25 0 -47.5 -9.5t-40.5 -26.5q-8 -11 -13.5 -16t-19.5 -5q-43 12 -83 35q-12 5 -10 20zM326 775 q0 -34 -13 -64t-35.5 -52t-52.5 -35t-64 -13h-9q-5 -13 -10.5 -25t-10.5 -25l6 -6q48 -49 48 -117q0 -38 -14 -67t-40 -56q5 -14 10.5 -26.5t10.5 -23.5h9q35 0 65 -12.5t52 -35t35 -52t13 -64.5v-9q13 -6 25.5 -11.5t25.5 -10.5q26 26 55 40t67 14q68 0 116 -48l6 -6 q14 5 26.5 10.5t24.5 11.5v9q0 34 13 64t35.5 52t52.5 35t64 13h9q6 11 11 24t10 27l-6 6q-47 49 -47 117q0 38 13.5 67t39.5 55q-9 28 -21 50h-9q-34 0 -64.5 13t-52.5 35t-35 52t-13 64v9q-13 6 -25.5 11.5t-25.5 10.5l-6 -6q-48 -48 -116 -48q-38 0 -67 14t-55 40 q-14 -5 -26.5 -10.5t-24.5 -11.5v-9zM262 438q0 49 19 92t51.5 75.5t75.5 51.5t92 19t92 -19t75.5 -51.5t51.5 -75.5t19 -92t-19 -92.5t-51.5 -76t-75.5 -51.5t-92 -19t-92 19t-75.5 51.5t-51.5 76t-19 92.5zM500 636q-41 0 -77 -15.5t-63 -42.5t-42.5 -63t-15.5 -77 t15.5 -77.5t42.5 -63.5t63 -42.5t77 -15.5t77 15.5t63 42.5t42.5 63.5t15.5 77.5t-15.5 77t-42.5 63t-63 42.5t-77 15.5z" />
<glyph unicode="3" d="M500 710q5 5 9.5 10.5t9.5 10.5q35 32 74 49.5t88 17.5q43 0 82 -15t69.5 -42t50.5 -63.5t26 -79.5q10 -76 -31 -145q-8 -11 -16 -22.5t-19 -21.5l-329 -325q-6 -7 -14 -7t-14 7l-329 325q-11 10 -19 21.5t-16 22.5q-41 69 -31 145q5 42 25.5 78.5t51 63.5t69.5 42.5 t82 15.5q31 0 61 -8t56 -24q19 -10 34.5 -24.5t29.5 -31.5zM319 758q-36 0 -68 -12.5t-57 -34.5t-41.5 -52t-21.5 -66q-8 -65 25 -118q6 -10 13.5 -19.5t15.5 -17.5l315 -312l315 312q18 16 29 37q17 28 23 58.5t2.5 60.5t-17.5 58t-37 50q-27 26 -61.5 41t-72.5 15 q-35 0 -72.5 -14.5t-61.5 -41.5q-9 -9 -16 -18.5t-14 -19.5q-3 -4 -7.5 -7t-9.5 -3t-10 3t-7 7q-7 11 -14 20.5t-16 17.5q-9 9 -18 16.5t-19 12.5q-22 14 -46.5 20.5t-50.5 6.5z" />
<glyph unicode="&#x3c;" d="M500 817q79 0 148 -30t120.5 -81.5t81.5 -120.5t30 -147q0 -79 -30 -148t-81.5 -120.5t-120.5 -81.5t-148 -30t-148 30t-120.5 81.5t-81.5 120.5t-30 148q0 78 30 147t81.5 120.5t120.5 81.5t148 30zM500 777q-70 0 -132 -26.5t-108.5 -72.5t-73 -107.5t-26.5 -132.5 t26.5 -133t73 -108t108.5 -72.5t132 -26.5q71 0 132.5 26.5t108 72.5t73 108t26.5 133t-26.5 132.5t-73 107.5t-108 72.5t-132.5 26.5zM579 259q-6 -6 -14 -6t-14 6l-170 169q-13 14 0 27l161 161q6 6 13 6q12 0 19 -11t-4 -22l-146 -148l155 -155q12 -13 0 -27z" />
<glyph unicode="=" d="M120 438q0 78 30 147t81.5 120.5t120.5 81.5t148 30t148 -30t120.5 -81.5t81.5 -120.5t30 -147q0 -79 -30 -148t-81.5 -120.5t-120.5 -81.5t-148 -30t-148 30t-120.5 81.5t-81.5 120.5t-30 148zM840 438q0 71 -26.5 132.5t-73 107.5t-108 72.5t-132.5 26.5 q-70 0 -132 -26.5t-108.5 -72.5t-73 -107.5t-26.5 -132.5t26.5 -133t73 -108t108.5 -72.5t132 -26.5q71 0 132.5 26.5t108 72.5t73 108t26.5 133zM325 537q-8 0 -14 6t-6 15q0 8 6 13.5t14 5.5h350q9 0 14.5 -5.5t5.5 -13.5q0 -9 -5.5 -15t-14.5 -6h-350zM675 338 q9 0 14.5 -6t5.5 -15q0 -8 -5.5 -13.5t-14.5 -5.5h-350q-8 0 -14 5.5t-6 13.5q0 9 6 15t14 6h350zM305 438q0 8 6 13.5t14 5.5h350q9 0 14.5 -5.5t5.5 -13.5t-5.5 -14t-14.5 -6h-350q-8 0 -14 6t-6 14z" />
<glyph unicode="&#x3e;" d="M500 58q-79 0 -148 30t-120.5 81.5t-81.5 120.5t-30 148q0 78 30 147t81.5 120.5t120.5 81.5t148 30t148 -30t120.5 -81.5t81.5 -120.5t30 -147q0 -79 -30 -148t-81.5 -120.5t-120.5 -81.5t-148 -30zM840 438q0 71 -26.5 132.5t-73 107.5t-108 72.5t-132.5 26.5 q-70 0 -132 -26.5t-108.5 -72.5t-73 -107.5t-26.5 -132.5t26.5 -133t73 -108t108.5 -72.5t132 -26.5q71 0 132.5 26.5t108 72.5t73 108t26.5 133zM458 259q-6 -6 -14 -6t-14 6q-13 14 0 27l147 148l-156 155q-11 11 -3.5 22t18.5 11q7 0 13 -6l170 -169q5 -5 5 -13t-5 -14z " />
<glyph unicode="@" d="M750 878q32 0 59 -12t47.5 -32t32 -47.5t11.5 -58.5t-11.5 -59t-32 -48t-47.5 -32t-59 -12q-36 0 -66 16.5t-52 42.5l-243 -142q6 -13 8.5 -27.5t2.5 -28.5q0 -15 -2.5 -29.5t-8.5 -27.5l243 -142q20 26 51 42.5t67 16.5q32 0 59 -12t47.5 -32t32 -47.5t11.5 -58.5 t-11.5 -59t-32 -48t-47.5 -32t-59 -12q-31 0 -58.5 12t-48 32t-32 48t-11.5 59q0 29 11 56l-243 142q-20 -26 -51 -42.5t-67 -16.5q-31 0 -58.5 12t-48 32t-32 48t-11.5 59t11.5 58.5t32 47.5t48 32t58.5 12q36 0 66.5 -16t51.5 -43l243 142q-11 27 -11 57q0 31 11.5 58.5 t32 47.5t48 32t58.5 12zM140 438q0 -23 8.5 -43.5t23.5 -35.5t35 -23.5t43 -8.5t43 8.5t35 23.5t23.5 35.5t8.5 43.5t-8.5 43t-23.5 35t-35 23.5t-43 8.5t-43 -8.5t-35 -23.5t-23.5 -35t-8.5 -43zM860 148q0 23 -8.5 43t-23.5 35t-35 23.5t-43 8.5t-43 -8.5t-35 -23.5 t-23.5 -35t-8.5 -43t8.5 -43.5t23.5 -35.5t35 -23.5t43 -8.5t43 8.5t35 23.5t23.5 35.5t8.5 43.5zM860 728q0 23 -8.5 43t-23.5 35t-35 23.5t-43 8.5t-43 -8.5t-35 -23.5t-23.5 -35t-8.5 -43t8.5 -43.5t23.5 -35.5t35 -23.5t43 -8.5t43 8.5t35 23.5t23.5 35.5t8.5 43.5z" />
<glyph unicode="C" />
<glyph unicode="E" d="M840 798q9 0 14 -6t5 -15v-274q0 -10 -6 -15l-405 -404q-6 -7 -14 -7t-14 7l-273 274q-8 6 -8 14.5t8 14.5l405 404q6 7 14 7h274zM435 126l385 386v246h-246l-385 -386zM610 628q0 16 6 30.5t17 26.5q24 22 57 22q32 0 57 -22q23 -26 23 -57q0 -32 -23 -58 q-25 -22 -57 -22q-33 0 -57 22q-23 26 -23 58zM731 628q0 16 -13 27q-11 13 -28 13q-15 0 -28 -13q-6 -5 -9 -12t-3 -15q0 -20 11 -28q11 -12 28 -12q19 0 29 12q6 5 9.5 12.5t3.5 15.5z" />
<glyph unicode="L" d="M140 577q0 9 5.5 15t14.5 6h180v179q0 9 6 15t14 6h480q9 0 14.5 -6t5.5 -15v-479q0 -9 -5.5 -15t-14.5 -6h-180v-179q0 -9 -6 -15t-14 -6h-480q-9 0 -14.5 6t-5.5 15v479zM380 317h440v441h-440v-441zM360 277q-8 0 -14 6t-6 15v260h-160v-441h440v160h-260z" />
<glyph unicode="M" d="M120 747q0 9 6 15t14 6h720q8 0 14 -6t6 -15v-479q0 -9 -6 -15t-14 -6h-390l-136 -134q-6 -6 -14 -6q-3 0 -4.5 0.5t-3.5 1.5q-12 5 -12 19v119h-160q-8 0 -14 6t-6 15v479zM160 728v-441h160q8 0 14 -5.5t6 -13.5v-92l108 105q6 6 14 6h378v441h-680z" />
<glyph unicode="Y" d="M589 252q-33 -22 -77.5 -34.5t-83.5 -12.5q-63 0 -119 24t-98 66t-66.5 98t-24.5 119q0 64 24 119.5t66 97t98 65t120 23.5q62 0 117.5 -22t97.5 -65q39 -38 61 -85.5t27 -98t-6.5 -101t-39.5 -95.5l189 -190q14 -13 0 -27l-69 -69q-6 -6 -14 -6t-14 6zM428 778 q-55 0 -104 -20.5t-86 -56.5t-58 -84t-21 -104q-1 -52 20.5 -100.5t57.5 -86t84 -59.5t101 -22q113 0 192 76q29 30 47 65.5t25.5 74t4 77.5t-17.5 76q-15 38 -40 68.5t-57.5 51.5t-70 32.5t-77.5 11.5zM641 295q-5 -6 -10 -10.5t-10 -9.5l170 -169l41 42l-170 169 q-5 -5 -10.5 -11t-10.5 -11z" />
<glyph unicode="^" d="M500 58q-79 0 -148 30t-120.5 81.5t-81.5 120.5t-30 148q0 78 30 147t81.5 120.5t120.5 81.5t148 30t148 -30t120.5 -81.5t81.5 -120.5t30 -147q0 -79 -30 -148t-81.5 -120.5t-120.5 -81.5t-148 -30zM500 98q71 0 132.5 26.5t108 72.5t73 108t26.5 133t-26.5 132.5 t-73 107.5t-108 72.5t-132.5 26.5q-70 0 -132 -26.5t-108.5 -72.5t-73 -107.5t-26.5 -132.5t26.5 -133t73 -108t108.5 -72.5t132 -26.5zM321 358q-5 6 -5 14.5t5 14.5l169 170q6 6 14 6t14 -6l161 -161q6 -6 6 -15t-6 -15t-14 -6t-14 6l-147 148l-155 -156q-7 -5 -14 -5 t-14 5z" />
<glyph unicode="d" />
<glyph unicode="e" d="M120 168q-9 0 -14.5 6t-5.5 14v500q0 8 5.5 13.5t14.5 5.5h760q9 0 14.5 -5.5t5.5 -13.5v-500q0 -8 -5.5 -14t-14.5 -6h-760zM500 336l332 332h-664zM831 207l-201 202l-116 -115q-6 -7 -14 -7t-14 7l-116 115l-201 -202h662zM140 235l202 203l-202 202v-405zM860 235 v405l-202 -202z" />
<glyph unicode="f" d="M100 617q0 9 5.5 15t14.5 6h80v80q0 8 6 13.5t14 5.5h344q7 0 13 -6l92 -93h211q9 0 14.5 -6t5.5 -15v-460q0 -8 -5.5 -13.5t-14.5 -5.5h-760q-9 0 -14.5 5.5t-5.5 13.5v460zM140 598v-420h720v420h-720zM553 697h-313v-59h372z" />
<glyph unicode="h" d="M440 67q0 -8 -5.5 -13.5t-14.5 -5.5h-180q-8 0 -14 5.5t-6 13.5v340h-100q-11 0 -18 13q-5 12 4 21l380 380q6 6 14 6t14 -6l378 -378q8 -5 8 -15q0 -9 -5.5 -15t-14.5 -6h-100v-340q0 -8 -5.5 -13.5t-14.5 -5.5h-180q-9 0 -14.5 5.5t-5.5 13.5v161h-120v-161zM260 88 h140v159q0 9 6 15t14 6h160q8 0 14 -6t6 -15v-159h140v319h-480v-319zM500 779l-332 -332h664z" />
<glyph unicode="l" d="M582 733l-121 -121q-44 -44 -44 -107q0 -48 25 -84.5t69 -55.5q8 -3 11 -10.5t1 -14.5q-6 -13 -20 -13q-2 0 -4 0.5t-4 0.5q-19 8 -34 18.5t-29 23.5q-27 29 -41 64t-14 71.5t14 72t41 63.5l121 121q29 26 63 40.5t74 14.5q38 0 72.5 -14.5t61.5 -40.5q28 -28 42 -63.5 t14 -72t-14 -72t-42 -63.5l-121 -121q-6 -6 -14 -6t-14 6q-6 7 -6 15t6 13l121 122q44 44 44 107q0 31 -11.5 58.5t-32 47.5t-47.5 32t-59 12q-64 0 -108 -44zM567 505q27 -28 41 -63.5t14 -72t-14 -71.5t-41 -64l-121 -121q-27 -26 -61.5 -40.5t-73.5 -14.5q-38 0 -73 14.5 t-62 40.5q-28 29 -41.5 64t-13.5 71.5t13.5 71.5t41.5 64l121 121q6 6 14 6t14 -6q6 -7 6 -15t-6 -13l-121 -121q-44 -46 -44 -107q0 -31 11.5 -59t32 -48t48 -32t59.5 -12q63 0 107 44l121 121q44 44 44 107q0 48 -25 84.5t-69 55.5q-8 3 -11 10.5t0 14.5q7 13 19 13 q6 0 16 -5t20.5 -12t20 -14t13.5 -12z" />
<glyph unicode="s" d="M600 247q0 -8 -6 -13.5t-14 -5.5h-232l-134 -134q-6 -6 -17 -6q-3 0 -5 2q-5 2 -8.5 7t-3.5 10v121h-80q-8 0 -14 5.5t-6 13.5v320q0 9 6 15t14 6h300v140q0 8 6 13.5t14 5.5h480q8 0 14 -5.5t6 -13.5v-321q0 -8 -6 -13.5t-14 -5.5h-79v-120q0 -8 -6 -14.5t-14 -6.5 q-7 0 -14 7l-134 134h-53v-141zM661 428q8 0 14 -6l106 -107v92q0 9 6 15t14 6h79v279h-440v-279h221zM120 548v-280h80q8 0 14 -6t6 -15v-92l106 107q6 6 14 6h220v120h-140q-8 0 -14 5.5t-6 13.5v141h-280z" />
<glyph unicode="u" d="M500 827q43 0 79.5 -19.5t63.5 -51t42 -71t15 -78.5q0 -27 -7.5 -54.5t-21.5 -53t-34 -47.5t-44 -37q58 -15 107 -48t84.5 -79t55.5 -102.5t20 -118.5q0 -8 -5.5 -13.5t-14.5 -5.5h-680q-9 0 -14.5 5.5t-5.5 13.5q0 62 20 118.5t55.5 102.5t84.5 79t107 48q-24 15 -44 37 t-34 47.5t-21.5 53t-7.5 54.5q0 39 15 78.5t42 71t63.5 51t79.5 19.5zM500 388q-63 0 -119.5 -23.5t-99.5 -64t-69.5 -95t-30.5 -117.5h638q-4 63 -30.5 117.5t-69.5 95t-99.5 64t-119.5 23.5zM340 607q0 -77 52 -128q51 -51 108 -51t108 51q52 51 52 128q0 78 -52 129 q-51 51 -108 51t-108 -51q-52 -51 -52 -129z" />
<glyph unicode="x" d="M880 438q0 -79 -30 -148t-81.5 -120.5t-120.5 -81.5t-148 -30t-148 30t-120.5 81.5t-81.5 120.5t-30 148q0 78 30 147t81.5 120.5t120.5 81.5t148 30t148 -30t120.5 -81.5t81.5 -120.5t30 -147zM840 438q0 71 -26.5 132.5t-73 107.5t-108 72.5t-132.5 26.5 q-70 0 -132 -26.5t-108.5 -72.5t-73 -107.5t-26.5 -132.5t26.5 -133t73 -108t108.5 -72.5t132 -26.5q71 0 132.5 26.5t108 72.5t73 108t26.5 133zM346 283q-6 6 -6 14.5t6 14.5l126 126l-126 126q-11 11 -4 22.5t19 11.5q7 0 13 -6l126 -126l126 126q6 6 13 6q8 0 15 -7 q5 -5 6 -12.5t-6 -14.5l-126 -126l126 -126q6 -6 6 -14.5t-6 -14.5t-14 -6t-14 6l-126 126l-126 -126q-6 -6 -14 -6t-14 6z" />
<glyph unicode="&#x531;" d="M858 337q-72 -72 -163.5 -110.5t-194.5 -38.5t-194.5 38.5t-163.5 110.5l-86 87q-13 14 0 27l86 87q72 72 163.5 111t194.5 39t194.5 -39t163.5 -111l86 -87q14 -13 0 -27zM500 228q94 0 179 35t151 101l72 74l-72 73q-66 66 -151 101.5t-179 35.5t-179 -35.5 t-151 -101.5l-72 -73l72 -74q66 -66 151 -101t179 -35zM340 438q0 33 12.5 62.5t34 51t51 34t62.5 12.5t62.5 -12.5t51 -34t34 -51t12.5 -62.5q0 -34 -12.5 -63t-34 -51t-51 -34.5t-62.5 -12.5t-62.5 12.5t-51 34.5t-34 51t-12.5 63zM380 438q0 -25 9.5 -47t25.5 -38.5 t38 -26t47 -9.5t47 9.5t38 26t25.5 38.5t9.5 47t-9.5 46.5t-25.5 38t-38 26t-47 9.5t-47 -9.5t-38 -26t-25.5 -38t-9.5 -46.5z" />
<glyph unicode="&#x532;" d="M710 128v239h-420v-239h420zM860 548q0 17 -11.5 28.5t-28.5 11.5h-640q-17 0 -28.5 -11.5t-11.5 -28.5v-240q0 -17 11.5 -28.5t28.5 -11.5h70v120q0 8 6 13.5t14 5.5h461q8 0 13.5 -5.5t5.5 -13.5v-120h70q17 0 28.5 11.5t11.5 28.5v240zM290 747v-119h420v119h-420z M820 628q16 0 30.5 -6.5t25.5 -17.5t17.5 -25.5t6.5 -30.5v-240q0 -17 -6.5 -31.5t-17.5 -25.5t-25.5 -17t-30.5 -6h-70v-121q0 -8 -5.5 -13.5t-13.5 -5.5h-461q-8 0 -14 5.5t-6 13.5v121h-70q-16 0 -30.5 6t-25.5 17t-17.5 25.5t-6.5 31.5v240q0 16 6.5 30.5t17.5 25.5 t25.5 17.5t30.5 6.5h70v140q0 8 6 13.5t14 5.5h461q8 0 13.5 -5.5t5.5 -13.5v-140h70zM630 317q9 0 14.5 -5.5t5.5 -13.5q0 -9 -5.5 -15t-14.5 -6h-260q-9 0 -14.5 6t-5.5 15q0 8 5.5 13.5t14.5 5.5h260zM630 218q9 0 14.5 -6t5.5 -15q0 -8 -5.5 -13.5t-14.5 -5.5h-260 q-9 0 -14.5 5.5t-5.5 13.5q0 9 5.5 15t14.5 6h260z" />
<glyph unicode="&#x22b7;" d="M688 563h125q27 0 44.5 -17.5t17.5 -45.5v-375q0 -27 -18.5 -44.5t-43.5 -17.5h-625q-28 0 -45.5 18t-17.5 44v375q0 28 17.5 45.5t45.5 17.5h125l62 125h250zM634 446q-27 27 -62 40.5t-72 13.5t-72 -13.5t-62 -40.5t-40 -62t-13 -71.5t13 -71.5t40 -62t62 -40.5 t72 -13.5t72 13.5t62 40.5t40 62t13 71.5t-13 71.5t-40 62zM412 400q38 38 88 38t88 -38q18 -18 27.5 -41t9.5 -46.5t-9.5 -46.5t-27.5 -41q-38 -38 -88 -38t-88 38q-18 18 -27.5 41t-9.5 46.5t9.5 46.5t27.5 41z" />
<glyph unicode="&#x25fc;" horiz-adv-x="815" d="M0 815h815v-815h-815v815z" />
<glyph unicode="&#xe60e;" d="M765 197q-2 -24 -22.5 -41t-48.5 -17h-35v-119q0 -29 -17.5 -49.5t-41.5 -20.5q-25 0 -42.5 20.5t-17.5 49.5v119h-79v-119q0 -29 -17.5 -49.5t-42.5 -20.5q-24 0 -41.5 20.5t-17.5 49.5v119h-39q-28 0 -48 17t-22 41h-1v390h533v-390zM383 830q55 22 116 22 q60 0 115 -22l39 70q4 7 10 7q2 0 3 -1q9 -4 2 -14l-38 -69q61 -28 98 -77.5t37 -110.5q0 -7 -0.5 -13t-1.5 -12h-529q-1 6 -1.5 12t-0.5 13q0 61 37 110.5t97 77.5l-38 69q-5 15 6 15q4 0 10 -7zM787 532q0 29 17.5 50t42.5 21q24 0 41.5 -21t17.5 -50v-228 q0 -29 -17.5 -50t-41.5 -21q-25 0 -42.5 21t-17.5 50v228zM94 532q0 29 17.5 50t41.5 21q25 0 42.5 -21t17.5 -50v-228q0 -29 -17.5 -50t-42.5 -21q-24 0 -41.5 21t-17.5 50v228zM355 728q0 -10 6.5 -17t16.5 -7t16.5 7t6.5 17q0 8 -6.5 15t-16.5 7t-16.5 -7t-6.5 -15z M621 750q-10 0 -16.5 -7t-6.5 -15q0 -10 6.5 -17t16.5 -7q9 0 16 7t7 17q0 8 -7 15t-16 7zM659 141h-119v-2h119v2zM461 141h-119v-2h119v2z" />
<glyph unicode="&#xe60f;" d="M470 125v287h381v-343zM470 445v287l381 56v-343h-381zM432 728v-283h-283v243zM432 412v-282l-283 40v242h283z" />
<glyph unicode="&#xe618;" d="M893 86l-41 -41l-227 227q-39 -35 -91.5 -55t-109.5 -20q-66 0 -124 25.5t-101 68.5t-67.5 101t-24.5 122q0 66 24.5 124t67.5 100.5t101 67t124 24.5q65 0 122 -24.5t100.5 -67t68.5 -100.5t25 -124q0 -57 -19.5 -109.5t-54.5 -91.5zM141 514q0 -58 22 -109.5t60.5 -90 t90 -61t110.5 -22.5q58 0 109.5 22.5t90 61t61 90t22.5 109.5q0 59 -22.5 111t-61 90t-90 60t-109.5 22q-59 0 -110.5 -22t-90 -60t-60.5 -90t-22 -111z" />
<glyph unicode="&#xe61f;" d="M732 22h-464v132h-184q-8 0 -13 5t-5 13v498q0 8 5 13t13 5h184v166h464v-166h184q8 0 13 -5t5 -13v-498q0 -8 -5 -13t-13 -5h-184v-132zM900 188v466h-800v-466h168v199h464v-199h168zM699 55v298l-398 1v-299h398zM699 688v132h-398v-132h398zM199 522q0 14 10 23.5 t25 9.5q14 0 24 -9.5t10 -23.5t-10 -24t-24 -10q-15 0 -25 10t-10 24zM301 522q0 14 9.5 23.5t23.5 9.5t23.5 -9.5t9.5 -23.5t-9.5 -24t-23.5 -10t-23.5 10t-9.5 24z" />
<glyph unicode="&#xe623;" d="M916 438q0 -87 -32.5 -162.5t-89 -132t-132 -89t-162.5 -32.5t-162.5 32.5t-132 89t-89 132t-32.5 162.5t32.5 162.5t89 132t132 89t162.5 32.5t162.5 -32.5t132 -89t89 -132t32.5 -162.5zM500 820q-79 0 -149 -30t-122 -81.5t-82 -121t-30 -149.5t30 -150t82 -121.5 t122 -81.5t149 -30q80 0 149.5 30t121.5 81.5t82 121.5t30 150t-30 149.5t-82 121t-121.5 81.5t-149.5 30zM252 420v35h230v233h36v-233h232v-35h-232v-230h-36v230h-230z" />
<glyph unicode="&#xe624;" d="M801 438l-602 -350v699zM734 438l-500 291v-582z" />
<glyph unicode="&#xe626;" d="M51 205v600h783v-135h115v-600h-783v135h-115zM916 104v533h-717v-533h717zM84 238h82v432h635v102h-717v-534z" />
<glyph unicode="&#xe639;" d="M84 703h832v-531h-832v531zM850 670h-700l323 -320q12 -12 27 -12q17 0 27 12zM551 326q-10 -11 -23.5 -16t-27.5 -5t-27.5 5t-23.5 16l-92 92l-214 -213h714l-214 213zM117 225l217 216l-217 217v-433zM666 441l217 -216v433z" />
<glyph unicode="&#xe641;" d="M604 502l-24 -23l-39 39q-20 17 -42 27t-48 10q-23 0 -46.5 -10t-41.5 -27l-209 -211q-20 -18 -28.5 -41.5t-8.5 -46.5t8.5 -47t28.5 -41l39 -39q8 -10 18.5 -16.5t20.5 -10.5q12 -6 25 -8t24 -2q12 0 25 2t24 8q10 4 20.5 10.5t18.5 16.5l141 139l23 -24l-140 -139 q-20 -24 -50.5 -35t-61.5 -11q-30 0 -60.5 11t-50.5 35l-39 39q-23 22 -35 51t-12 61q0 31 12 60.5t35 52.5l209 209q23 23 52.5 35t58.5 12q65 0 114 -47zM719 820q-23 0 -47 -8.5t-41 -28.5l-149 -146l-23 23l148 147q22 23 51 35t61 12q31 0 60 -12t51 -35l39 -39 q23 -22 35 -51t12 -61q0 -31 -12 -60t-35 -51l-209 -211q-23 -23 -52.5 -35t-58.5 -12q-32 0 -61 11.5t-52 35.5l23 23q20 -17 42 -27t48 -10q23 0 46.5 10t41.5 27l209 211q20 18 28.5 41.5t8.5 46.5q0 24 -8.5 47.5t-28.5 40.5l-39 39q-18 20 -41.5 28.5t-46.5 8.5z" />
<glyph unicode="&#xe642;" d="M148 418q-32 32 -48 73.5t-16 86.5q0 48 18.5 90.5t50 74t73.5 50t90 18.5q55 0 103.5 -23.5t80.5 -66.5q32 43 80.5 66.5t103.5 23.5q48 0 90.5 -18.5t74 -50t49.5 -74t18 -90.5q0 -23 -5 -46.5t-13 -45.5q-10 -20 -22.5 -39t-29.5 -35l-346 -347zM316 777 q-41 0 -77 -16t-63 -43t-43 -63t-16 -77q0 -20 4 -39.5t10 -36.5q15 -35 41 -61l328 -330l322 325q31 31 46 64.5t15 77.5q0 41 -16 77t-43 63t-63 43t-77 16q-63 0 -111.5 -33t-72.5 -90q-24 57 -72.5 90t-111.5 33z" />
<glyph unicode="&#xe643;" d="M638 354q8 17 13 35.5t5 39.5q0 41 -19.5 75.5t-51.5 55.5h243q12 -31 19 -63.5t7 -67.5q0 -76 -28.5 -140.5t-77.5 -112t-114.5 -74.5t-140.5 -27q-11 0 -16 1zM449 79q-64 9 -119.5 39.5t-96 77.5t-63.5 107t-23 126q0 55 15 104.5t44 91.5l147 -250q17 -45 56.5 -74 t90.5 -29q20 0 37 4.5t34 12.5zM500 782q52 0 100 -14.5t89 -40.5t73.5 -62t53.5 -80h-317q-31 0 -58 -11t-48 -30.5t-34 -46t-15 -57.5l-121 208q48 61 120 97.5t157 36.5zM368 429q0 27 10.5 51t28.5 42t42 28t51 10t51 -10t42 -28t28.5 -42t10.5 -51q0 -28 -10 -52 t-28 -42t-42 -28t-52 -10t-52 10t-42 28t-28 42t-10 52z" />
<glyph unicode="&#xe644;" d="M385 619q-26 -18 -47.5 -33t-40 -31.5t-35.5 -36.5t-35 -48q10 58 37.5 107.5t69 86t94 57t112.5 20.5q5 0 8 -1q39 19 87.5 33.5t92.5 14.5q57 0 90 -36q39 -40 19 -116q-7 -23 -12 -41.5t-10 -30.5q17 -34 26 -72t9 -80q0 -21 -3 -44h-447q2 -28 13 -53t29.5 -44 t43.5 -30t54 -11q39 0 71 20t51 53h170q-16 -48 -45.5 -88t-68 -69.5t-85 -45.5t-98.5 -16q-75 0 -137 33q-34 -18 -70.5 -33t-74.5 -15q-58 0 -84 35.5t-17 100.5q8 53 26 101.5t44 95.5l2 4q31 55 72 107.5t89 105.5zM679 466q-3 27 -15 50.5t-30.5 41t-42.5 27t-51 9.5 q-26 0 -49.5 -9.5t-42.5 -27t-31 -41t-16 -50.5h278zM242 293q-58 -107 -27 -155q29 -43 64 -43q22 0 48 12.5t45 23.5q-44 29 -77 70t-53 92zM792 731q-17 14 -43 14q-39 0 -96 -28q48 -20 86.5 -54t64.5 -79q5 17 9 34t6 24q12 52 -27 89z" />
<glyph unicode="&#xe645;" d="M817 329q3 -8 4 -17q2 -8 1.5 -17.5t-5.5 -19.5q-4 -10 -12.5 -23.5t-21 -27.5t-28.5 -27.5t-36 -22.5q-5 -9 -11 -17q-5 -7 -11.5 -14.5t-14.5 -12.5q-12 -8 -33 -14.5t-44.5 -11t-46 -7t-36.5 -2.5q-4 0 -7 0.5t-6 0.5q0 -1 2 -3t4 -3.5l6 -4.5q-51 0 -99 21q1 -3 4 -5 l7.5 -5t11.5 -5q-31 8 -52.5 14.5t-40 15.5t-37 23t-43.5 36q-70 60 -90 128q-19 65 -22 93q-3 -6 -4 -11q-5 -12 -5 -24v53q0 53 12 69q-4 -5 -7 -10l-4.5 -9t-4.5 -10l11 46q7 28 19.5 53.5t31 45t43.5 31.5t57 12q14 0 26 -3q-2 -6 -3 -12.5t-2 -12.5q-1 -7 -1 -13 q1 10 8.5 19.5t10.5 12.5q1 0 26 24q22 20 52 20q3 0 6.5 -0.5t7.5 -0.5q-2 -2 -5 -6q-2 -2 -6 -6.5t-9 -9.5q-20 -21 -26 -49q-2 -2 -2 -6q-6 -15 -6 -35q0 -13 5 -29.5t13 -27.5q3 -5 6 -9t5 -7q1 -4 2 -17t-3 -24q0 1 -1 2t-1 2q-2 2 -4 3l-3.5 3.5l-3.5 3.5q-7 5 -16 10 q-8 5 -19 5q-3 1 -10 1q-23 0 -39.5 -15t-25.5 -34q-6 -19 -5 -37q0 -10 2.5 -18.5t6.5 -16.5q6 -17 19 -30t27 -24q-12 10 -26 25q-5 7 -9 14.5t-8 15.5q-6 18 -6 34q0 37 26 60q20 14 38 14q6 0 15 -2t14 -7q-4 -2 -8 -7t-6 -12l-1 1q0 -1 -1 -4.5l-3 -10.5t-3.5 -16 t-1.5 -20q0 -30 13 -53t36 -40q3 -5 10.5 -10.5t21.5 -7.5q18 -3 32 -7.5t14 -6.5q-2 0 -5 1h-10q-7 0 -9 -1q5 -4 12 -7t16 -5.5t22 -2.5h9t9 1q18 3 29 5.5t17 4.5q7 2 11 4q-1 -3 -1 -6q-2 -5 -5 -7q3 1 12.5 6.5t14.5 15.5q5 8 9 10t6 2h2l1 -1q-1 -2 -1 -4q-2 -4 1 -5 t19 12.5t27 48.5q6 18 8.5 29t3.5 17q1 7 0 10q3 -1 5 -4q5 -5 5 -17l2 7q1 3 1.5 8t2.5 11q6 24 4 44q-1 10 -2 20.5t-2 23.5q-1 6 -1.5 10.5t-0.5 8.5q-1 3 -1 6q6 -3 11 -8t10.5 -11.5t9.5 -15.5q0 4 -1 11v12.5t-1 18.5q-3 41 -18 65t-25 39t-27 26q9 0 19 -3 q9 -2 21 -8.5t26 -20.5q-13 18 -23.5 32.5t-22.5 26.5t-26 23t-34 23q4 -1 10 -3l27 -9q38 -12 61 -34q21 -20 42 -41t34 -46q-12 29 -31 51.5t-42 44.5v13l21 -15q21 -15 24 -27v11q9 -7 18 -16q8 -8 16.5 -20.5t16.5 -29.5q15 -35 15.5 -62.5t0.5 -39.5q0 -9 -0.5 -11.5 t-1.5 -4.5q2 2 7.5 12.5t5.5 19.5l9 -46q9 -46 -9 -88q-9 -21 -14 -33t-7 -16t-3 -5q0 -1 -1 -2zM398 331q-11 11 -16.5 29.5t-5.5 34.5q0 10 1 15l2.5 -2.5l3.5 -3.5q13 -11 31 -19t36 -8q19 0 33 10q17 10 36 10q15 0 28 -5t18 -11q9 -10 8.5 -18t-8.5 -8q-3 0 -6.5 0.5 t-7.5 0.5q-8 0 -13 -5q-2 -2 -5 -4q-2 -2 -6 -4.5t-9 -6.5q-20 -15 -37 -21q-11 -2 -28 -3t-31 -1q-7 5 -13 9.5t-11 10.5zM252 670q46 48 108 75.5t134 27.5q56 0 105.5 -17t91.5 -47q-18 11 -38.5 17t-38.5 8q-55 24 -120 24q-66 0 -125 -24.5t-105 -71.5h-1q0 -1 -1 -2 q-3 2 -5.5 5t-4.5 5zM417 518q-7 12 -12 24.5t-5 26.5q0 8 1 14.5t3 12.5q3 -4 7.5 -7t9.5 -4t21 -1h16h6q19 0 24 -5q3 -2 3 -7t-1 -10.5t-3 -10t-4 -6.5q-1 -1 -7.5 -5t-14.5 -8t-15 -8t-9 -5q-3 -2 -6.5 -4.5t-6.5 -5.5q-2 2 -3.5 4t-3.5 5zM193 606h-2q1 10 3 23t6 26.5 t11 26.5t17 23q0 -9 2 -18q2 -8 7.5 -17.5t16.5 -18.5q-17 -5 -33.5 -18.5t-27.5 -26.5zM159 493q1 1 1 2q0 -1 -1 -2z" />
<glyph unicode="&#xe647;" d="M500 854q87 0 162.5 -32.5t132 -89t89 -132t32.5 -162.5t-32.5 -162.5t-89 -132t-132 -89t-162.5 -32.5t-162.5 32.5t-132 89t-89 132t-32.5 162.5t32.5 162.5t89 132t132 89t162.5 32.5zM117 438q0 -80 30 -150t82 -121.5t122 -81.5t149 -30q80 0 149.5 30t121.5 81.5 t82 121.5t30 150t-30 149.5t-82 121t-121.5 81.5t-149.5 30q-79 0 -149 -30t-122 -81.5t-82 -121t-30 -149.5zM535 555v-317h35v-33h-134v33h33v284h-33v33h99zM451 639q0 10 4 19.5t12 15.5q13 16 35 16t35 -16q8 -6 12 -15.5t4 -19.5t-4 -20t-12 -15q-6 -6 -15.5 -10 t-19.5 -4t-19.5 4t-15.5 10q-8 5 -12 15t-4 20z" />
<glyph unicode="&#xe648;" d="M434 254v-232h-235v398l301 301l301 -301v-398h-235v232h-132zM234 406v-351h166v232h200v-232h166v351l-266 268zM500 854l418 -416l-23 -24l-395 393l-394 -393l-24 24l117 117v199h135v-66zM234 588l67 66v67h-67v-133z" />
<glyph unicode="&#xe64a;" d="M500 854q87 0 162.5 -32.5t132 -89t89 -132t32.5 -162.5t-32.5 -162.5t-89 -132t-132 -89t-162.5 -32.5t-162.5 32.5t-132 89t-89 132t-32.5 162.5t32.5 162.5t89 132t132 89t162.5 32.5zM883 438q0 80 -30 149.5t-82 121t-121.5 81.5t-149.5 30q-79 0 -149 -30 t-122 -81.5t-82 -121t-30 -149.5t30 -150t82 -121.5t122 -81.5t149 -30q80 0 149.5 30t121.5 81.5t82 121.5t30 150zM482 354q2 21 5 36.5t9 27.5q8 14 19 25.5t28 27.5q17 17 27 34.5t10 41.5q0 35 -25 56.5t-59 21.5q-47 0 -70.5 -29t-23.5 -74h-37q5 62 35 97 q37 37 98 37q50 0 84.5 -28.5t34.5 -78.5q0 -18 -4 -31.5t-9 -25.5q-8 -11 -17 -22t-21 -21q-17 -17 -25.5 -27t-13.5 -18q-4 -10 -4.5 -20t-0.5 -30h-40zM500 221q-14 0 -23.5 9.5t-9.5 23.5t9.5 23.5t23.5 9.5t23.5 -9.5t9.5 -23.5t-9.5 -23.5t-23.5 -9.5z" />
<glyph unicode="&#xe653;" d="M119 760q19 19 47 19h168q28 0 47 -19q8 -10 13.5 -21.5t5.5 -25.5v-18h434q27 0 46.5 -19.5t19.5 -46.5v-467q0 -14 -5.5 -25.5t-13.5 -21.5q-19 -19 -47 -19h-668q-28 0 -47 19q-8 10 -13.5 21.5t-5.5 25.5v551q0 14 5.5 25.5t13.5 21.5zM834 129q14 0 23.5 9.5 t9.5 23.5v401h-734v-401q0 -14 9.5 -23.5t23.5 -9.5h668zM166 746q-14 0 -23.5 -9.5t-9.5 -23.5v-117h734v33q0 14 -9.5 23.5t-23.5 9.5h-467v51q0 14 -9.5 23.5t-23.5 9.5h-168z" />
<glyph unicode="&#xe661;" d="M783 594v10q0 -55 -20.5 -105t-56 -88.5t-84 -62.5t-104.5 -26v-267h132v-33h-300v33h132v267q-56 2 -104.5 26t-84 62.5t-56 88.5t-20.5 105v-10l-147 146q-19 19 -19 47q0 14 4.5 26.5t14.5 20.5q8 10 20.5 15t26.5 5h766q14 0 26.5 -5t20.5 -15q10 -8 14.5 -20.5 t4.5 -26.5q0 -28 -19 -47zM250 604q0 -51 19.5 -97t54.5 -79q34 -35 79.5 -54.5t96.5 -19.5t97 19.5t79 54.5q35 33 54.5 79t19.5 97v216h-500v-216zM906 764q6 4 8 10.5t2 12.5q0 14 -8.5 23.5t-22.5 9.5h-102v-179zM115 820q-14 0 -22.5 -9.5t-8.5 -23.5q0 -6 2 -12.5 t8 -10.5l123 -123v179h-102z" />
<glyph unicode="&#xe669;" d="M750 22v-34h-633v34h317q-66 0 -124 24.5t-101 67t-67.5 100.5t-24.5 124v250h766v-268h-133q-4 -63 -30 -117.5t-68.5 -94.5t-98.5 -63t-119 -23h316zM434 55q59 0 110.5 22.5t89.5 60.5t60.5 90t22.5 110v217h-567v-217q0 -59 22 -110.5t60.5 -90t90.5 -60.5t111 -22z M850 555h-100v-201h100v201zM449 688h-33v199h33v-199zM316 688h-33v150h33v-150zM584 688h-33v150h33v-150z" />
<glyph unicode="&#xe66b;" d="M500 838q83 0 156 -31.5t127 -86t85.5 -127t31.5 -155.5t-31.5 -156t-85.5 -127.5t-127 -86t-156 -31.5t-156 31.5t-127 86t-85.5 127.5t-31.5 156t31.5 155.5t85.5 127t127 86t156 31.5zM133 438q0 -76 29 -143t79 -117t116.5 -79t142.5 -29t142.5 29t116.5 79t79 117 t29 143q0 75 -29 142t-79 117t-116.5 79t-142.5 29t-142.5 -29t-116.5 -79t-79 -117t-29 -142zM500 404v299h33v-332h-232v33h199z" />
<glyph unicode="&#xe66c;" d="M500 22q-87 0 -162.5 32.5t-132 89t-89 132t-32.5 162.5t32.5 162.5t89 132t132 89t162.5 32.5t162.5 -32.5t132 -89t89 -132t32.5 -162.5t-32.5 -162.5t-89 -132t-132 -89t-162.5 -32.5zM117 438q0 -80 30 -150t82 -121.5t122 -81.5t149 -30q80 0 149.5 30t121.5 81.5 t82 121.5t30 150t-30 149.5t-82 121t-121.5 81.5t-149.5 30q-79 0 -149 -30t-122 -81.5t-82 -121t-30 -149.5zM313 420q5 8 16 8q9 0 19 -8l93 -94l268 260q6 8 17 8q10 0 18 -8q6 -8 6 -18.5t-8 -16.5l-285 -278q-2 -4 -6.5 -4.5t-9.5 -0.5t-10 0.5t-7 4.5l-111 112 q-8 8 -8 18.5t8 16.5z" />
<glyph unicode="&#xe671;" d="M619 418q0 25 -9.5 46.5t-25.5 37.5t-38 25t-46 9t-46 -9t-38 -25t-25.5 -37.5t-9.5 -46.5q0 -39 22 -69t55 -43l-79 -212q-49 18 -90.5 50t-71.5 74.5t-47 93t-17 106.5q0 71 27.5 134t74.5 110t110 74.5t135 27.5t135 -27.5t110 -74.5t74.5 -110t27.5 -134 q0 -56 -17 -106.5t-47 -93t-71.5 -74.5t-90.5 -50l-79 212q33 13 55 43t22 69z" />
<glyph unicode="&#xe67b;" d="M949 47h-898l449 781zM500 762l-393 -682h786zM482 279v233h36v-233h-36zM500 229q10 0 17.5 -7t7.5 -17q0 -11 -7.5 -18t-17.5 -7t-17.5 7t-7.5 18q0 10 7.5 17t17.5 7z" />
<glyph unicode="&#xe681;" d="M500 22q-5 -1 -9 -1h-9q-79 0 -152.5 35.5t-129.5 94t-88 133.5t-28 154q0 87 32.5 162.5t88.5 132t132 89t163 32.5h18q79 0 152.5 -35.5t129.5 -94t88.5 -133t27.5 -153.5q3 -53 -10.5 -104.5t-40.5 -97.5t-65 -85.5t-83 -68.5t-95.5 -45t-103.5 -16h-9t-9 1zM500 820 q-79 0 -149 -30t-122 -81.5t-82 -121t-30 -149.5t30 -150t82 -121.5t122 -81.5t149 -30q80 0 149.5 30t121.5 81.5t82 121.5t30 150t-30 149.5t-82 121t-121.5 81.5t-149.5 30zM500 461l164 166l26 -25l-167 -164l165 -165l-24 -23l-164 164l-164 -164l-23 23l164 165 l-166 164l25 25z" />
<glyph unicode="&#xe682;" d="M688 373l-24 -23l-164 164l-164 -166l-23 25l187 188z" />
<glyph unicode="&#xe683;" d="M500 22q-86 0 -162 32.5t-133 89t-90 132t-33 162.5q0 86 33 162t90 133t133 90t162 33t161.5 -33t132 -90t89.5 -133t33 -162t-32.5 -162t-89 -132.5t-132.5 -89t-162 -32.5zM115 438q0 -79 30.5 -149t83 -122t122.5 -82t149 -30t149 30t122 82t82 122t30 149t-30 148.5 t-82 121.5t-121.5 82t-149.5 30q-79 0 -149 -29.5t-122.5 -81.5t-83 -121.5t-30.5 -149.5zM688 373l-24 -23l-164 164l-166 -166l-23 25l189 188z" />
<glyph unicode="&#xe684;" d="M434 250l-24 23l164 165l-164 164l24 23l189 -187z" />
<glyph unicode="&#xe685;" d="M500 856q86 0 162 -33t132.5 -90t89 -133t32.5 -162q0 -87 -32.5 -162.5t-89 -132t-132 -89t-162.5 -32.5q-86 0 -162 32.5t-133 89t-90 132t-33 162.5q0 86 33 162t90 133t133 90t162 33zM883 438q0 79 -30 148.5t-82 121.5t-121.5 82t-149.5 30q-79 0 -149 -29.5 t-122.5 -81.5t-83 -121.5t-30.5 -149.5q0 -79 30.5 -149t83 -122t122.5 -82t149 -30t149 30t122 82t82 122t30 149zM410 273l164 165l-164 166l24 23l189 -189l-189 -188z" />
<glyph unicode="&#xe686;" d="M424 438l164 -165l-23 -23l-188 188l188 187l23 -23z" />
<glyph unicode="&#xe687;" d="M500 22q-86 0 -162 32.5t-133 89t-90 132t-33 162.5q0 86 33 162t90 133t133 90t162 33t161.5 -33t132 -90t89.5 -133t33 -162q0 -87 -32.5 -162.5t-89 -132t-132 -89t-162.5 -32.5zM115 438q0 -79 30.5 -149t83 -122t122.5 -82t149 -30t149 30t122 82t82 122t30 149 t-30 148.5t-82 121.5t-121.5 82t-149.5 30q-79 0 -149 -29.5t-122.5 -81.5t-83 -121.5t-30.5 -149.5zM565 250l-188 188l188 187l23 -23l-164 -164l164 -165z" />
<glyph unicode="&#xe688;" d="M500 361l164 166l24 -23l-188 -189l-187 187l23 23z" />
<glyph unicode="&#xe689;" d="M82 438q0 86 33 162t90 133t133 90t162 33t161.5 -33t132 -90t89.5 -133t33 -162t-32.5 -162t-89 -132.5t-132.5 -89t-162 -32.5t-162 32.5t-133 89t-90 132t-33 162.5zM115 438q0 -79 30.5 -149t83 -122t122.5 -82t149 -30t149 30t122 82t82 122t30 149t-30 148.5 t-82 121.5t-121.5 82t-149.5 30q-79 0 -149 -29.5t-122.5 -81.5t-83 -121.5t-30.5 -149.5zM311 502l23 23l164 -164l166 166l24 -23l-190 -189z" />
<glyph unicode="&#xe68c;" horiz-adv-x="918" d="M918 258h-787v490h787v-490zM885 717h-721v-428h721v428zM852 191h-786v493h32v-459h754v-34zM787 127h-787v490h33v-459h754v-31zM525 602q20 0 37.5 -8t31 -21.5t21.5 -31t8 -37.5q0 -21 -8 -39t-21.5 -31.5t-31 -21.5t-37.5 -8q-42 0 -70.5 29t-28.5 71q0 20 7.5 37.5 t21 31t31.5 21.5t39 8zM570 549q-8 10 -20.5 14.5t-24.5 4.5q-14 0 -26 -4.5t-20 -14.5q-20 -17 -20 -45q0 -14 5 -26.5t15 -20.5q8 -10 20 -14.5t26 -4.5q12 0 24.5 4.5t20.5 14.5q10 8 15 20.5t5 26.5q0 28 -20 45zM738 356h98v-34h-98v34zM213 356h98v-34h-98v34z M738 682h98v-32h-98v32zM311 650h-98v32h98v-32z" />
<glyph unicode="&#xe696;" d="M346 611l36 -58l-102 -124l102 -125l-36 -59l-151 184zM720 429l-102 124l36 58l151 -182l-151 -184l-36 59zM412 250l105 358h66l-105 -358h-66z" />
<glyph unicode="&#xe699;" horiz-adv-x="820" d="M0 438q0 85 32.5 159.5t88 130t130 88t159.5 32.5q84 0 159 -32.5t130.5 -88t88 -130.5t32.5 -159q0 -85 -32.5 -159.5t-88 -130.5t-130.5 -88.5t-159 -32.5q-85 0 -159.5 32.5t-130 88t-88 130.5t-32.5 160zM410 61q78 0 146.5 30t119.5 81t81 119.5t30 146.5 q0 77 -30 145.5t-81 120t-119.5 81.5t-146.5 30t-146.5 -29.5t-120 -81t-81 -120t-29.5 -146.5t29.5 -147t81 -120t120 -80.5t146.5 -29.5zM197 422v31h397l-158 160l21 24l199 -199l-199 -200l-21 24l158 160h-397z" />
<glyph unicode="&#xe6a2;" horiz-adv-x="820" d="M0 438q0 85 32.5 159.5t88 130t130 88t159.5 32.5q84 0 159 -32.5t130.5 -88t88 -130.5t32.5 -159q0 -85 -32.5 -159.5t-88 -130.5t-130.5 -88.5t-159 -32.5q-85 0 -159.5 32.5t-130 88t-88 130.5t-32.5 160zM33 438q0 -78 29.5 -147t81 -120t120 -80.5t146.5 -29.5 t146.5 30t119.5 81t81 119.5t30 146.5q0 77 -30 145.5t-81 120t-119.5 81.5t-146.5 30t-146.5 -29.5t-120 -81t-81 -120t-29.5 -146.5zM225 453h398v-31h-398l160 -160l-24 -24l-199 200l199 199l24 -24z" />
<glyph unicode="&#xf102;" d="M781 707q5 -9 9 -15.5t8 -16.5t7 -26t6 -45q9 -70 25 -86q13 -11 72 -13t67 -7l13 -12l8 -17l4 -14l-2 -260q0 -66 -25 -124t-68 -101.5t-101 -69t-124 -25.5h-367q-67 0 -124.5 26t-99.5 70.5t-65.5 103t-23.5 124.5v371q0 66 24.5 122t66.5 96.5t99 63.5t123 23h222 q36 0 73.5 -14.5t71 -38t60.5 -53.5t41 -62zM316 260q-29 0 -43.5 -20t-14.5 -44.5t14.5 -44.5t43.5 -20h360q29 0 44 20t15 44.5t-15 44.5t-44 20h-360zM316 619q-29 0 -43.5 -20t-14.5 -44.5t14.5 -44.5t43.5 -20h178q29 -1 43.5 19.5t15 45t-14 45t-44.5 19.5h-178z" />
<glyph unicode="&#xf106;" horiz-adv-x="531" d="M156 -125v453h-156v188h156v125q0 56 17 99.5t48 73.5t73.5 45.5t94.5 15.5q91 0 142 -6v-160h-97q-51 0 -70.5 -22t-19.5 -64v-107h176l-22 -188h-154v-453h-188z" />
<glyph unicode="&#xf10b;" d="M1000 -8q0 -24 -9 -45.5t-25 -37.5t-37.5 -25t-45.5 -9h-768q-23 0 -44 9t-36.5 25t-25 37.5t-9.5 45.5v768q0 23 9.5 44t25 37t36.5 25t44 9h768q24 0 45.5 -9t37.5 -25t25 -37t9 -44v-768zM191 377q0 13 2.5 31.5t7.5 44.5h-92v-422q0 -17 15 -32t30 -15h690 q17 0 32 15t15 32v422h-94q5 -24 7.5 -43t2.5 -33q0 -64 -24 -120.5t-65.5 -98.5t-97.5 -66t-121 -24t-121 24t-97.5 66t-65.5 98.5t-24 120.5zM363 240q29 -29 64 -42.5t72 -13.5t72 13.5t64 42.5q28 29 42 64t14 72t-14 72.5t-42 63.5q-29 28 -64 42t-72 14t-72 -14 t-64 -42q-28 -28 -42 -63.5t-14 -72.5t14 -72t42 -64zM688 606q0 -16 12.5 -29.5t30.5 -13.5h113q17 0 32 13.5t15 29.5v115q0 16 -15 30.5t-32 14.5h-113q-18 0 -30.5 -14t-12.5 -31v-115z" />
<glyph unicode="&#xf117;" d="M0 61q12 -2 24 -2h25q143 0 256 88q-69 0 -120.5 39.5t-73.5 102.5q10 -2 19.5 -3t19.5 -1q28 0 55 6q-36 8 -66 27t-52 45.5t-34 59.5t-12 69v4q43 -25 92 -25q-92 60 -92 170q0 54 29 103q77 -96 187 -152.5t235 -62.5q-6 24 -6 47q0 43 16.5 80.5t44 65t65 43.5 t79.5 16q90 0 151 -64q70 13 131 49q-23 -72 -90 -114q62 9 117 34q-40 -63 -102 -108v-25q0 -68 -17 -137.5t-50.5 -134.5t-83 -122t-114 -99t-144.5 -66.5t-174 -24.5q-173 0 -315 92z" />
<glyph unicode="&#xf118;" d="M500 781q84 0 158 -32t129 -87t87 -129t32 -158t-32 -158t-87 -129t-129 -87t-158 -32q-85 0 -159 32t-129 87t-86.5 129t-31.5 158t31.5 158t86.5 129t129 87t159 32zM156 375q0 -72 27 -134.5t73.5 -109t109 -73.5t134.5 -27t134.5 27t109 73.5t73.5 109t27 134.5 t-27 134.5t-73.5 109t-109 73.5t-134.5 27t-134.5 -27t-109 -73.5t-73.5 -109t-27 -134.5zM398 344l125 -125l-46 -43l-200 199l200 199l46 -43l-125 -125h321v-62h-321z" />
<glyph unicode="&#xf119;" d="M906 375q0 -84 -32 -158t-87 -129t-129 -87t-158 -32q-85 0 -159 32t-129 87t-86.5 129t-31.5 158t31.5 158t86.5 129t129 87t159 32q84 0 158 -32t129 -87t87 -129t32 -158zM156 375q0 -72 27 -134.5t73.5 -109t109 -73.5t134.5 -27t134.5 27t109 73.5t73.5 109 t27 134.5t-27 134.5t-73.5 109t-109 73.5t-134.5 27t-134.5 -27t-109 -73.5t-73.5 -109t-27 -134.5zM531 594v-321l125 125l43 -46l-199 -200l-199 200l43 46l125 -125v321h62z" />
<glyph unicode="&#xf11b;" d="M500 781q84 0 158 -32t129 -87t87 -129t32 -158t-32 -158t-87 -129t-129 -87t-158 -32q-85 0 -159 32t-129 87t-86.5 129t-31.5 158t31.5 158t86.5 129t129 87t159 32zM156 375q0 -72 27 -134.5t73.5 -109t109 -73.5t134.5 -27t134.5 27t109 73.5t73.5 109t27 134.5 t-27 134.5t-73.5 109t-109 73.5t-134.5 27t-134.5 -27t-109 -73.5t-73.5 -109t-27 -134.5zM523 574l200 -199l-200 -199l-46 43l125 125h-321v62h321l-125 125z" />
<glyph unicode="&#xf11c;" d="M500 -31q-85 0 -159 32t-129 87t-86.5 129t-31.5 158t31.5 158t86.5 129t129 87t159 32q84 0 158 -32t129 -87t87 -129t32 -158t-32 -158t-87 -129t-129 -87t-158 -32zM500 31q72 0 134.5 27t109 73.5t73.5 109t27 134.5t-27 134.5t-73.5 109t-109 73.5t-134.5 27 t-134.5 -27t-109 -73.5t-73.5 -109t-27 -134.5t27 -134.5t73.5 -109t109 -73.5t134.5 -27zM469 156v321l-125 -125l-43 46l199 200l199 -200l-43 -46l-125 125v-321h-62z" />
<glyph unicode="&#xf120;" d="M12 580q5 30 15 56t27 45t41.5 29.5t58.5 10.5h702q57 -6 89.5 -39.5t44.5 -87.5l2 -18q4 -38 6 -77t2 -81v-74l-8 -162q-7 -70 -39 -100q-33 -36 -99 -43q-45 -3 -101.5 -4.5t-125.5 -3.5l-123 -2q-131 2 -215.5 4t-124.5 6q-59 0 -97 33t-51 90l-4 20q-12 80 -12 162 v74q0 37 3 77t7 64zM672 391l-272 140v-281z" />
<glyph unicode="&#xf121;" horiz-adv-x="846" d="M258 -63v137h-45q-28 0 -46.5 18.5t-18.5 46.5l-1 400h552v-400q0 -28 -19.5 -46.5t-46.5 -18.5h-45v-137q2 -30 -17.5 -45t-43.5 -15t-43.5 15t-18.5 45v137h-84v-137q2 -30 -17.5 -45t-43.5 -15t-43.5 15t-18.5 45zM260 871l43 -80q56 25 120 25q31 0 62 -6t60 -19 l43 80q1 4 7 4q5 0 8 -3.5t-1 -8.5l-43 -80q65 -33 103.5 -92.5t38.5 -129.5h-556q0 70 38.5 129.5t103.5 92.5l-43 78q-3 6 0 10.5t8 4.5q3 0 8 -5zM723 231v259q0 29 19 44t42 15t42.5 -15t19.5 -44v-258q0 -31 -19.5 -46t-42.5 -15t-42 15.5t-19 44.5zM0 231v259 q0 26 18 43t43 17q24 0 43 -16.5t19 -43.5v-259q0 -30 -19 -44.5t-42 -14.5t-42.5 14.5t-19.5 44.5zM280 669q7 -7 16 -7q7 0 13 4t9 10t2.5 13t-6.5 13q-7 7 -16 7q-7 0 -13 -4t-9 -10t-2.5 -13t6.5 -13zM534 669q7 -7 15 -7q6 0 12 4t9 10t2 13t-7 13q-6 7 -14 7 q-7 0 -12.5 -4t-8.5 -10t-2.5 -13t6.5 -13z" />
<glyph unicode="&#xf123;" horiz-adv-x="996" d="M996 400l-539 -3v400l539 78v-475zM996 -125l-539 76l-2 397h541v-473zM406 352l2 -395l-408 57v340zM0 734l408 55v-392l-408 -2v339z" />
<glyph unicode="&#xf12c;" d="M94 375q0 84 31.5 158t86.5 129t129 87t159 32q84 0 158 -32t129 -87t87 -129t32 -158t-32 -158t-87 -129t-129 -87t-158 -32q-85 0 -159 32t-129 87t-86.5 129t-31.5 158zM500 719q-123 0 -219 -78l481 -489q82 97 82 223q0 72 -27 134.5t-73.5 109t-109 73.5t-134.5 27 zM156 375q0 -72 27 -134.5t73.5 -109t109 -73.5t134.5 -27q123 0 219 78l-481 489q-82 -97 -82 -223z" />
<glyph unicode="&#xf131;" horiz-adv-x="996" d="M996 -125h-191q3 107 -25 209t-80 191.5t-125 164.5t-161.5 129.5t-189 84.5t-207.5 30h-17v191q138 0 265.5 -36t238 -101t201.5 -156.5t155.5 -202.5t100 -238.5t35.5 -265.5zM0 344v191h12q87 0 169 -24.5t154.5 -68.5t133 -105t103 -134.5t65.5 -156.5t21 -171h-193 q0 97 -36 182.5t-98.5 149.5t-147.5 100.5t-183 36.5zM133 143q133 0 133 -133t-133 -133t-133 133t133 133z" />
<glyph unicode="&#xf162;" d="M359 688h282l47 -63h218v-562h-812v562h219zM844 125v438h-188l-47 62h-218l-37 -51l-10 -11h-188v-438h688zM633 211q-28 -28 -62.5 -41.5t-70.5 -13.5t-70.5 13.5t-62.5 41.5q-27 27 -41 62t-14 71t14 71t41 62q28 27 62.5 40.5t70.5 13.5t70.5 -13.5t62.5 -40.5 q27 -27 41 -62t14 -71t-14 -71t-41 -62zM589 433q-18 18 -41.5 27t-47.5 9t-47.5 -9t-41.5 -27t-27 -41.5t-9 -48t9 -47.5t27 -41t41.5 -27t47.5 -9t47.5 9t41.5 27t27 41t9 47.5t-9 48t-27 41.5zM228 523q9 9 21 9q9 0 17 -5.5t12.5 -13.5t3.5 -17.5t-9 -17.5 q-10 -10 -22 -10q-9 0 -17 5.5t-12 13.5t-3.5 17.5t9.5 18.5z" />
<glyph unicode="&#xf163;" d="M688 625h218v-562h-812v562h62v31h125v-31h32l46 63h282zM844 375h-160q2 -9 3 -16.5t1 -14.5q0 -39 -14.5 -73t-40 -59.5t-60 -40.5t-73.5 -15t-73 15t-59.5 40.5t-40 59.5t-14.5 73q0 13 3 31h-160v-250h688v250zM609 625h-218l-37 -51l-10 -11h-188v-125h182 q54 93 162 93t162 -93h182v125h-188zM411 255q18 -18 41.5 -27t47.5 -9t47.5 9t41.5 27t27 41t9 47.5t-9 48t-27 41.5t-41.5 27t-47.5 9t-47.5 -9t-41.5 -27t-27 -41.5t-9 -48t9 -47.5t27 -41zM781 531v-62h-62v62h62z" />
<glyph unicode="&#xf179;" d="M586 648l-47 -46q-47 -49 -37 -114l-51 -50q-13 32 -13 70q0 82 58 139l45 44q56 59 139 59q40 0 75.5 -15.5t62 -42t42 -62t15.5 -75.5q0 -83 -59 -139l-44 -45q-57 -58 -139 -58q-38 0 -70 13l50 51q5 -1 10 -1.5t10 -0.5q55 0 94 39l46 47q32 27 37.5 65.5t-8 74.5 t-43.5 61.5t-71 25.5q-32 0 -56 -8.5t-46 -31.5zM125 195q0 82 59 139l45 45q56 59 138 59q35 0 71 -14l-51 -51q-5 1 -10 1.5t-10 0.5q-53 0 -94 -39l-46 -47q-31 -27 -37 -65.5t7.5 -74.5t44 -61.5t70.5 -25.5q6 0 8 1q57 0 94 39l47 46q47 49 37 114l51 51q14 -36 14 -71 q0 -82 -59 -138l-45 -45q-57 -59 -139 -59q-40 0 -75.5 15.5t-62 42t-42 62t-15.5 75.5zM648 477l-250 -250l-46 46l250 250z" />
<glyph unicode="&#xf17c;" d="M781 666l-43 -45q-98 98 -238 98q-72 0 -134.5 -27t-109 -73.5t-73.5 -109t-27 -134.5t27 -134.5t73.5 -109t109 -73.5t134.5 -27t134.5 27t109 73.5t73.5 109t27 134.5q0 41 -10 78l51 51q21 -57 21 -129q0 -84 -32 -158t-87 -129t-129 -87t-158 -32q-85 0 -159 32 t-129 87t-86.5 129t-31.5 158t31.5 158t86.5 129t129 87t159 32q166 0 281 -115zM500 295l352 353l46 -46l-375 -375l-23 -20l-23 20l-157 156l47 47z" />
<glyph unicode="&#xf17e;" d="M188 63h625v369l62 62v-494h-750v750h744l-62 -62h-619v-625zM523 227l-23 -20l-23 20l-157 156l47 47l133 -135l352 353l46 -46z" />
<glyph unicode="&#xf184;" d="M70 481l-19 23l19 21l123 123l22 20l23 -20l262 -263l262 263l23 20l22 -20l123 -123l19 -21l-19 -23l-407 -407l-23 -21l-23 21zM500 141l361 363l-76 76l-262 -262l-23 -21l-23 21l-262 262l-76 -76z" />
<glyph unicode="&#xf185;" d="M594 773l23 20l24 -20l111 -113l21 -23l-261 -262l261 -262l-21 -23l-111 -113l-24 -20l-23 20l-375 375l-20 23l20 23zM287 375l330 -330l69 68l-264 262l264 262l-69 68z" />
<glyph unicode="&#xf186;" d="M248 660l111 113l24 20l23 -20l375 -375l20 -23l-20 -23l-375 -375l-23 -20l-24 20l-111 113l-21 23l261 262l-261 262zM315 113l68 -68l330 330l-330 330l-68 -68l263 -262z" />
<glyph unicode="&#xf187;" d="M477 676l23 21l23 -21l407 -406l19 -24l-19 -21l-123 -123l-22 -20l-23 20l-262 263l-262 -263l-23 -20l-22 20l-123 123l-19 21l19 24zM215 170l262 262l23 21l23 -21l262 -262l76 76l-361 363l-361 -363z" />
<glyph unicode="&#xf18a;" d="M875 375q0 -78 -29.5 -146t-80.5 -119t-119 -80.5t-146 -29.5t-146 29.5t-119 80.5t-80.5 119t-29.5 146t29.5 146t80.5 119t119 80.5t146 29.5t146 -29.5t119 -80.5t80.5 -119t29.5 -146zM813 375q0 65 -24.5 122t-67 99.5t-99.5 67t-122 24.5t-122 -24.5t-99 -67 t-66.5 -99.5t-24.5 -122t24.5 -122t66.5 -99t99 -66.5t122 -24.5t122 24.5t99.5 66.5t67 99t24.5 122z" />
<glyph unicode="&#xf18f;" d="M125 375q0 78 29.5 146t80.5 119t119 80.5t146 29.5t146 -29.5t119 -80.5t80.5 -119t29.5 -146t-29.5 -146t-80.5 -119t-119 -80.5t-146 -29.5t-146 29.5t-119 80.5t-80.5 119t-29.5 146zM500 688q-65 0 -122 -24.5t-99 -67t-66.5 -99.5t-24.5 -122t24.5 -122t66.5 -99 t99 -66.5t122 -24.5t122 24.5t99.5 66.5t67 99t24.5 122t-24.5 122t-67 99.5t-99.5 67t-122 24.5zM688 406v-62h-219v281h62v-219h157z" />
<glyph unicode="&#xf190;" d="M313 563h531v-532h-531v532zM375 94h406v406h-406v-406zM219 656v-406h62v-62h-125v531h532v-125h-63v62h-406z" />
<glyph unicode="&#xf191;" d="M500 420l273 275l47 -47l-275 -273l275 -273l-47 -47l-273 275l-273 -275l-47 47l275 273l-275 273l47 47z" />
<glyph unicode="&#xf193;" d="M731 561q41 -2 77 -19t63 -44t44 -63.5t19 -77.5q66 -58 66 -138q0 -39 -14.5 -73t-40 -59.5t-59.5 -40.5t-73 -15h-625q-39 0 -73.5 15t-60 40.5t-40 59.5t-14.5 73q0 31 10 59.5t28 52t43.5 40t55.5 24.5q14 41 45 67t74 34q6 47 27 87.5t53 70.5t74 47.5t90 17.5 q39 0 74.5 -11.5t65 -32.5t53 -50t38.5 -64zM281 438q-33 0 -58 -20.5t-33 -52.5l-4 -21l-22 -4q-43 -6 -72 -40t-29 -81q0 -27 9.5 -49.5t26.5 -39.5t39.5 -26.5t49.5 -9.5h625q26 0 49 9.5t40 26.5t26.5 39.5t9.5 49.5q0 63 -51 99l-12 10v16q0 32 -12.5 60.5t-33.5 49.5 t-49.5 33.5t-60.5 12.5h-31l-8 23q-18 60 -66.5 96.5t-113.5 36.5q-39 0 -73 -14.5t-59.5 -40t-40 -59.5t-14.5 -73v-31h-32zM398 367l71 -72v205h62v-205l71 72l46 -47l-125 -125l-23 -19l-23 19l-125 125z" />
<glyph unicode="&#xf199;" d="M781 125h-375q-39 0 -66 27.5t-27 66.5v562h562v-125h63q39 0 66 -27t27 -66v-94q0 -39 -27 -66.5t-66 -27.5h-63v-156q0 -19 -7.5 -36.5t-20 -30t-29.5 -20t-37 -7.5zM813 219v500h-438v-500q0 -14 8.5 -22.5t22.5 -8.5h375q14 0 23 8.5t9 22.5zM938 438q14 0 22.5 8.5 t8.5 22.5v94q0 14 -8.5 22.5t-22.5 8.5h-63v-156h63zM563 813h-63v125h63v-125zM625 906h63v-93h-63v93z" />
<glyph unicode="&#xf1a1;" d="M688 719v-500h-301l-149 -117l-50 -43v160h-125v500h625zM356 273l7 8h262v375h-500v-375h125v-90zM324 94l78 62h235l113 -90v90h125v375h-125v63h188v-500h-125v-160l-200 160h-289z" />
<glyph unicode="&#xf1bd;" d="M523 133l-23 -20l-23 20l-219 219l47 46l164 -166v518h62v-518l164 166l47 -46zM781 0h-562v63h562v-63z" />
<glyph unicode="&#xf1ce;" d="M125 375q0 78 29.5 146t80.5 119t119 80.5t146 29.5t146 -29.5t119 -80.5t80.5 -119t29.5 -146t-29.5 -146t-80.5 -119t-119 -80.5t-146 -29.5t-146 29.5t-119 80.5t-80.5 119t-29.5 146zM188 375q0 -65 24.5 -122t66.5 -99t99 -66.5t122 -24.5t122 24.5t99.5 66.5t67 99 t24.5 122t-24.5 122t-67 99.5t-99.5 67t-122 24.5t-122 -24.5t-99 -67t-66.5 -99.5t-24.5 -122zM469 313v250h62v-250h-62zM469 188v62h62v-62h-62z" />
<glyph unicode="&#xf1cf;" d="M500 773l430 -742h-860zM180 94h640l-320 554zM531 438v-188h-62v188h62zM469 219h62v-63h-62v63z" />
<glyph unicode="&#xf219;" d="M875 375q0 -78 -29.5 -146t-80.5 -119t-119 -80.5t-146 -29.5t-146 29.5t-119 80.5t-80.5 119t-29.5 146t29.5 146t80.5 119t119 80.5t146 29.5t146 -29.5t119 -80.5t80.5 -119t29.5 -146zM500 688l-25 -2l68 -6l18 -71l-94 -19l-26 35l-54 -12l19 -82l-125 -58l-84 -67 l30 -62h117l125 -94l-31 -125l33 -60q11 -2 18 -2h11q72 0 135 31l49 156q-22 55 -26 55l-64 -10l-63 49l32 94l54 41l55 7l51 -31l19 39l-82 28l-68 -22l-6 65l27 23l35 -14l-7 63l27 2q-80 49 -168 49zM402 78l-87 110h-38l-58 62v66l-29 36q4 -48 21 -91.5t45 -79.5 t65 -62.5t81 -40.5zM416 664l49 22q-39 -4 -72 -18z" />
<glyph unicode="&#xf225;" d="M176 313q-16 0 -31 7t-26.5 19t-18 28.5t-6.5 34.5v14l8 10l211 211v176h500v-528q0 -31 -20.5 -57.5t-54.5 -32.5l-238 -52v-112q0 -19 -7.5 -36.5t-20 -30t-29.5 -20t-37 -7.5q-39 0 -66 27.5t-27 66.5v336l-24 -6q-21 -26 -50.5 -37t-62.5 -11zM375 449v-418 q0 -31 31 -31q32 0 32 31v162l23 6l266 55q23 6 23 31v309h-394l-196 -199q3 -20 16 -20q36 0 58 16l20 25l12 4zM750 750h-375v-94h375v94z" />
<glyph unicode="&#xf226;" d="M410 63q-31 0 -57.5 20t-32.5 54l-52 238h-112q-39 0 -66 27.5t-27 66.5t27 66.5t66 27.5h336l-6 23q-26 21 -37 50.5t-11 62.5q0 34 26 58t63 24h14l10 -8l211 -210h176v-500h-528zM379 148q6 -23 31 -23h309v395l-199 195q-20 -2 -20 -16q0 -36 16 -58l25 -20l4 -12 l29 -109h-418q-31 0 -31 -31t31 -31h162l6 -24zM781 125h94v375h-94v-375z" />
<glyph unicode="&#xf227;" d="M459 781h14q37 0 63.5 -24t26.5 -58q0 -33 -11.5 -62.5t-37.5 -50.5l-6 -23h336q39 0 66.5 -27.5t27.5 -66.5q0 -19 -7.5 -36.5t-20 -30t-29.5 -20t-37 -7.5h-112l-52 -238q-6 -34 -32 -54t-58 -20h-527v500h175l211 210zM438 539l17 70l4 12l10 8q6 2 15 12q16 22 16 58 q0 15 -19 16l-200 -195v-395h309q25 0 31 23l55 266l6 24h162q31 0 31 31t-31 31h-418zM125 125h94v375h-94v-375z" />
<glyph unicode="&#xf228;" d="M289 389l24 -6v336q0 19 7 36t19.5 29.5t29 20t35.5 7.5q18 0 35.5 -6.5t31 -19t21.5 -29.5t8 -38v-112l238 -52q34 -6 54.5 -32t20.5 -58v-528h-500v176l-211 211l-8 10v14q0 18 6.5 34.5t18 29t26.5 19.5t31 7q33 0 62.5 -11.5t50.5 -37.5zM266 330l-12 4l-8 10 q-1 6 -12 15q-22 16 -58 16q-13 0 -16 -19l196 -200h394v309q0 25 -23 31l-266 55l-23 6v162q0 31 -32 31q-31 0 -31 -31v-418l-39 12zM750 0v94h-375v-94h375z" />
<glyph unicode="&#xf233;" d="M500 629q99 90 203 90q48 0 91 -18.5t75 -50.5t50.5 -74.5t18.5 -91.5q0 -19 -7 -41.5t-18 -43.5t-24.5 -40t-27.5 -33l-361 -359l-361 359q-14 14 -28 33.5t-24.5 40.5t-17 43t-6.5 41q0 49 18.5 91.5t50 74.5t74.5 50.5t91 18.5q104 0 203 -90z" />
<glyph unicode="&#xf234;" d="M500 -35l-359 363q-16 14 -30 32.5t-24.5 39t-17 42t-6.5 42.5q0 49 18.5 91.5t50 74.5t74 50.5t91.5 18.5q113 0 203 -92q90 92 203 92q49 0 91.5 -18.5t74.5 -50.5t50.5 -74.5t18.5 -91.5q0 -19 -5.5 -39.5t-14 -39t-19 -34t-20.5 -25.5l-20 -18zM184 371l316 -316 l316 316q59 63 59 113q0 35 -13.5 66.5t-37 55t-55 37t-66.5 13.5q-21 0 -43 -6.5t-43 -16t-39 -21.5t-31 -24l-24 -22l-23 -27l-23 27q-16 17 -38 33t-46 28.5t-48.5 20.5t-47.5 8q-35 0 -66.5 -13.5t-55 -37t-37 -55t-13.5 -66.5q0 -32 27 -76z" />
<glyph unicode="&#xf237;" d="M156 0v361l-39 -41l-47 47l407 406l23 20l23 -20l407 -406l-47 -47l-39 41v-361h-281v313h-125v-313h-282zM219 424v-361h156v312h250v-312h156v361l-281 281z" />
<glyph unicode="&#xf24b;" d="M94 375q0 84 31.5 158t86.5 129t129 87t159 32q84 0 158 -32t129 -87t87 -129t32 -158t-32 -158t-87 -129t-129 -87t-158 -32q-85 0 -159 32t-129 87t-86.5 129t-31.5 158zM156 375q0 -72 27 -134.5t73.5 -109t109 -73.5t134.5 -27t134.5 27t109 73.5t73.5 109t27 134.5 t-27 134.5t-73.5 109t-109 73.5t-134.5 27t-134.5 -27t-109 -73.5t-73.5 -109t-27 -134.5zM469 188v250h62v-250h-62zM469 500v63h62v-63h-62z" />
<glyph unicode="&#xf29a;" d="M125 594v62h750v-62h-750zM125 344v62h750v-62h-750zM875 156v-62h-750v62h750z" />
<glyph unicode="&#xf2bf;" d="M500 750q78 0 146 -29.5t119 -80.5t80.5 -119t29.5 -146t-29.5 -146t-80.5 -119t-119 -80.5t-146 -29.5t-146 29.5t-119 80.5t-80.5 119t-29.5 146t29.5 146t80.5 119t119 80.5t146 29.5zM500 63q65 0 122 24.5t99.5 66.5t67 99t24.5 122t-24.5 122t-67 99.5t-99.5 67 t-122 24.5t-122 -24.5t-99 -67t-66.5 -99.5t-24.5 -122t24.5 -122t66.5 -99t99 -66.5t122 -24.5zM750 375l-375 -215v430zM625 375l-187 107v-214z" />
<glyph unicode="&#xf2c3;" d="M906 375q0 -84 -32 -158t-87 -129t-129 -87t-158 -32q-85 0 -159 32t-129 87t-86.5 129t-31.5 158t31.5 158t86.5 129t129 87t159 32q84 0 158 -32t129 -87t87 -129t32 -158zM156 375q0 -72 27 -134.5t73.5 -109t109 -73.5t134.5 -27t134.5 27t109 73.5t73.5 109 t27 134.5t-27 134.5t-73.5 109t-109 73.5t-134.5 27t-134.5 -27t-109 -73.5t-73.5 -109t-27 -134.5zM531 344v-156h-62v156h-156v62h156v157h62v-157h157v-62h-157z" />
<glyph unicode="&#xf2c4;" d="M156 31v688h688v-688h-688zM219 656v-562h562v562h-562zM344 344v62h125v125h62v-125h125v-62h-125v-125h-62v125h-125z" />
<glyph unicode="&#xf2c7;" d="M281 125h-156v313q0 39 27.5 66t66.5 27h62v219h438v-219h62q39 0 66.5 -27t27.5 -66v-313h-156v-125h-438v125zM281 313h438v-125h94v250q0 31 -32 31h-562q-31 0 -31 -31v-250h93v125zM656 63v187h-312v-187h312zM344 531h312v157h-312v-157zM228 429q9 9 21 9 q9 0 17 -5.5t12.5 -13.5t3.5 -17.5t-9 -17.5q-9 -9 -22 -9q-9 0 -17 5t-12 13t-3.5 17.5t9.5 18.5z" />
<glyph unicode="&#xf2cc;" d="M875 375q0 -78 -29.5 -146t-80.5 -119t-119 -80.5t-146 -29.5t-146 29.5t-119 80.5t-80.5 119t-29.5 146t29.5 146t80.5 119t119 80.5t146 29.5t146 -29.5t119 -80.5t80.5 -119t29.5 -146zM500 688q-65 0 -122 -24.5t-99 -67t-66.5 -99.5t-24.5 -122t24.5 -122t66.5 -99 t99 -66.5t122 -24.5t122 24.5t99.5 66.5t67 99t24.5 122t-24.5 122t-67 99.5t-99.5 67t-122 24.5zM438 438h-63q0 51 37 87q17 20 38.5 29t44.5 9q25 0 49 -9.5t42.5 -26t29.5 -39.5t9 -50q0 -38 -22.5 -69t-59.5 -45l-12 -4v-39h-62v39q0 48 43 61l11 4q40 12 40 53 q1 30 -19 45t-44 15t-43.5 -15t-18.5 -45zM469 188v62h62v-62h-62z" />
<glyph unicode="&#xf2cd;" d="M125 438q0 39 14.5 73t40 59.5t60 40t73.5 14.5v-62q-27 0 -49.5 -9.5t-39.5 -26.5t-26.5 -40t-9.5 -49h250v-313h-313v313zM563 438q0 39 14.5 73t40 59.5t59.5 40t73 14.5v-62q-26 0 -49 -9.5t-40 -26.5t-26.5 -40t-9.5 -49h250v-313h-312v313zM625 188h188v187h-188 v-187zM188 375v-187h187v187h-187z" />
<glyph unicode="&#xf2ce;" d="M563 625h312v-312q0 -39 -14.5 -73.5t-40 -60t-59.5 -40t-73 -14.5v63q26 0 49 9.5t40 26.5t26.5 39.5t9.5 49.5h-250v312zM438 625v-312q0 -39 -14.5 -73.5t-40 -60t-60 -40t-73.5 -14.5v63q26 0 49 9.5t40 26.5t26.5 39.5t9.5 49.5h-250v312h313zM625 563v-188h188v188 h-188zM375 375v188h-187v-188h187z" />
<glyph unicode="&#xf2eb;" d="M594 781q65 0 122 -24.5t99 -66.5t66.5 -99t24.5 -122t-24.5 -122t-66.5 -99.5t-99 -67t-122 -24.5q-111 0 -197 71l-249 -250l-46 46l250 249q-71 86 -71 197q0 65 24.5 122t67 99t99.5 66.5t122 24.5zM344 469q0 -52 19.5 -97.5t53.5 -79.5t79.5 -53.5t97.5 -19.5 t97.5 19.5t79.5 53.5t53.5 79.5t19.5 97.5t-19.5 97.5t-53.5 79.5t-79.5 53.5t-97.5 19.5t-97.5 -19.5t-79.5 -53.5t-53.5 -79.5t-19.5 -97.5z" />
<glyph unicode="&#xf2f1;" d="M625 629q42 -18 76.5 -47t59.5 -66.5t38.5 -81t13.5 -90.5v-16q62 -38 62 -109q0 -25 -10 -48t-27 -40t-39.5 -27t-48.5 -10q-27 0 -51 12q-44 -38 -95 -56.5t-104 -18.5t-104 18.5t-95 56.5q-24 -12 -51 -12q-25 0 -48 10t-40 27t-27 40t-10 48q0 70 63 107v18 q0 47 13.5 90.5t38 81t59 66.5t76.5 47q2 24 11.5 46t25.5 38.5t37.5 26.5t46.5 10q24 0 47 -9t41.5 -25t29.5 -38t11 -49zM750 344q0 36 -10 69.5t-28.5 62.5t-44.5 52t-58 38q-34 -66 -109 -66q-74 0 -109 66q-32 -15 -58 -38t-44.5 -52t-28.5 -62.5t-10 -69.5 q26 0 48.5 -10t39.5 -27t27 -39.5t10 -48.5q0 -42 -25 -74q33 -26 71.5 -38.5t78.5 -12.5t78.5 12.5t71.5 38.5q-25 34 -25 74q0 26 10 48.5t27 39.5t40 27t48 10zM206 175q19 -19 42 -19q18 0 33.5 10.5t24 26.5t7 35t-18.5 35q-10 10 -20.5 14t-21.5 4q-18 0 -33.5 -10.5 t-24 -26t-6.5 -34t18 -35.5zM706 175q19 -19 42 -19q18 0 33.5 10.5t24 26.5t7 35t-18.5 35q-10 10 -20.5 14t-21.5 4q-18 0 -33.5 -10.5t-24 -26t-6.5 -34t18 -35.5zM544 669q-10 10 -20.5 14t-21.5 4q-18 0 -33.5 -10.5t-24 -26t-6.5 -34t18 -35.5q10 -10 20.5 -14 t21.5 -4q18 0 33.5 10.5t24 26t7 34.5t-18.5 35z" />
<glyph unicode="&#xf301;" d="M188 63q-26 0 -44.5 17.5t-18.5 44.5v500q0 12 5.5 23t14 20t20 14.5t23.5 5.5h212q37 0 57 -38l43 -87h313q27 0 44.5 -17.5t17.5 -45.5v-375q0 -27 -17.5 -44.5t-44.5 -17.5h-625z" />
<glyph unicode="&#xf302;" d="M188 125q-26 0 -44.5 17.5t-18.5 45.5v375q0 12 5.5 23t14 19.5t20 14t23.5 5.5h474q26 0 45 -19l231 -231l-231 -230q-20 -20 -45 -20h-474zM582 332q18 -18 41 -18q18 0 33 10t23 25.5t6.5 34t-17.5 34.5q-18 18 -41 18q-18 0 -33 -10t-23 -25.5t-6.5 -34t17.5 -34.5z " />
<glyph unicode="&#xf303;" d="M875 375q0 -78 -29.5 -146t-80.5 -119t-119 -80.5t-146 -29.5t-146 29.5t-119 80.5t-80.5 119t-29.5 146t29.5 146t80.5 119t119 80.5t146 29.5t146 -29.5t119 -80.5t80.5 -119t29.5 -146zM656 156l63 63l-176 176v230h-94v-269z" />
<glyph unicode="&#xf304;" d="M188 0v125q0 40 14 74.5t39 59.5t59.5 39.5t74.5 14.5h250q40 0 74.5 -14.5t59.5 -39.5t39.5 -59.5t14.5 -74.5v-125h-625zM366 429q-27 27 -40 62t-13 71.5t13 71.5t40 62t62 40.5t72 13.5t72 -13.5t62 -40.5t40 -62t13 -71.5t-13 -71.5t-40 -62t-62 -40.5t-72 -13.5 t-72 13.5t-62 40.5z" />
<glyph unicode="&#xf318;" d="M500 809l131 -293l316 -34l-236 -212l66 -313l-277 158l-277 -158l66 313l-236 212l316 34z" />
<glyph unicode="&#xf330;" d="M133 305l-20 23l20 22l357 361l10 8h344v-344l-8 -10l-361 -357l-22 -20l-23 20zM199 328l254 -254l328 328v254h-254zM665 585q9 9 21 9q9 0 17 -5.5t12.5 -13.5t3.5 -17.5t-9 -17.5q-9 -9 -21 -9q-9 0 -17 5.5t-12.5 13.5t-3.5 17.5t9 17.5z" />
<glyph unicode="&#xf33d;" d="M424 164l6 24h-180q-22 0 -41.5 9.5t-32 25.5t-18 36.5t-0.5 41.5l69 312q5 34 31.5 54.5t57.5 20.5h528v-500h-145l-220 -219h-14q-19 0 -35.5 6.5t-28.5 18t-19 26.5t-7 31q0 33 11.5 62.5t37.5 50.5zM457 35l199 196v394h-340q-25 0 -31 -23l-66 -313 q-2 -16 6.5 -27.5t24.5 -11.5h262l-12 -39l-21 -82l-10 -8q-5 -1 -16 -12q-15 -22 -15 -58q0 -13 19 -16zM719 250h62v375h-62v-375z" />
<glyph unicode="&#xf340;" d="M522 781h13q38 0 64 -24t26 -58q0 -33 -11.5 -62.5t-37.5 -50.5l-6 -23h180q23 0 42 -9.5t31.5 -25.5t18 -36.5t0.5 -42.5l-69 -312q-5 -34 -31.5 -54t-57.5 -20h-528v500h145l211 210zM488 500l12 39l18 70l4 12l9 8q5 1 16 12q16 24 16 58q0 14 -20 16l-199 -195v-395 h340q25 0 31 23l66 313q2 16 -6.5 27.5t-24.5 11.5h-262zM219 500v-375h62v375h-62z" />
<glyph unicode="&#xf359;" d="M162 137q108 0 192 66q-51 0 -90 30t-55 78q12 -4 29 -4q22 0 41 6q-27 6 -50 19.5t-39.5 33.5t-26 45t-9.5 52v2q31 -17 71 -20q-69 48 -69 129q0 43 22 78q123 -152 316 -162q-2 9 -3 18t-1 17q0 32 12 60.5t33 49.5t49.5 33t60.5 12q65 0 111 -49q51 9 98 37 q-18 -54 -67 -84q23 3 44.5 9t43.5 14q-31 -45 -76 -80v-19q0 -51 -13 -103.5t-38 -101t-62 -91t-86 -74t-108.5 -50t-130.5 -18.5q-128 0 -236 69q9 -2 18 -2h19z" />
<glyph unicode="&#xf362;" d="M742 523l-47 -46l-164 166v-518h-62v518l-164 -166l-47 46l219 219l23 20l23 -20zM781 0h-562v63h562v-63z" />
<glyph unicode="&#xf364;" d="M469 281q-52 0 -97.5 -19.5t-79.5 -53.5t-53.5 -79.5t-19.5 -97.5h-63q0 48 14 92t39 81t60.5 66.5t78.5 47.5q-45 29 -71.5 78t-26.5 104q0 45 17 85t47 70t70 47t85 17t84.5 -17.5t69.5 -47.5t47.5 -69.5t17.5 -84.5q0 -55 -26.5 -104t-71.5 -78q43 -18 78 -47.5 t60 -66.5t39 -81t14 -92h-62q0 52 -19.5 97.5t-53.5 79.5t-79.5 53.5t-97.5 19.5zM579 390q23 23 34.5 51.5t11.5 58.5t-11.5 58.5t-34.5 51.5t-51.5 34.5t-58.5 11.5t-59 -11.5t-52 -34.5t-34.5 -51.5t-11.5 -58.5t11.5 -58.5t34.5 -51.5t52 -34.5t59 -11.5t58.5 11.5 t51.5 34.5z" />
<glyph unicode="&#xf376;" d="M500 773l430 -742h-860zM180 94h640l-320 554zM531 438v-188h-62v188h62zM469 219h62v-63h-62v63z" />
<glyph unicode="&#xf37a;" d="M875 377q0 -78 -29 -146t-79.5 -118.5t-118.5 -79.5t-146 -29q-96 0 -180 45l-197 -53l53 194q-49 86 -49 187q0 78 29 146t79.5 118.5t118.5 79.5t146 29t146 -29t118.5 -79.5t79.5 -118.5t29 -146zM502 688q-65 0 -121.5 -24.5t-98.5 -66.5t-66.5 -98.5t-24.5 -121.5 q0 -89 47 -166l8 -12l-31 -113l117 29l12 -6q74 -43 158 -43q65 0 121.5 24.5t98.5 66.5t66.5 98.5t24.5 121.5t-24.5 121.5t-66.5 98.5t-98.5 66.5t-121.5 24.5zM510 223q-27 11 -61.5 37t-64.5 59.5t-50.5 70t-20.5 69.5q0 11 3.5 26t11 29.5t18 24.5t23.5 10h18 q15 0 21 -16q2 -5 7 -16.5t10 -23.5q6 -14 13 -30q3 -7 0 -16q-7 -12 -10 -15q-3 -4 -5.5 -7t-4.5 -5l-4 -4q-10 -10 -4 -19q22 -40 53 -65q5 -5 16.5 -13t24.5 -16t25 -14t18 -6t10 4q11 13 19 22t12 15q3 6 10 6q6 0 9 -2q5 -1 17.5 -6.5t27 -12.5t26 -13t12.5 -9 q5 -9 -6 -43q-3 -11 -13 -20t-22.5 -15t-26 -9t-24.5 -3q-18 0 -35 6q-29 7 -53 20z" />
<glyph unicode="&#xf37e;" d="M809 719l35 4v-696l-35 4l-625 88l-28 2v508l28 2zM500 344v-207l281 -39v246h-281zM781 406v246l-281 -39v-207h281zM219 176l219 -29v197h-219v-168zM219 406h219v198l-219 -30v-168z" />
<glyph unicode="&#xf38b;" d="M781 211q0 -32 -1 -61t-3 -56q0 -38 -26 -64t-63 -26q-51 -2 -105.5 -3t-113.5 -1q-60 0 -114.5 1t-104.5 3q-37 0 -63.5 26t-26.5 64q-2 26 -3 55.5t-1 61.5t1 61t3 56q0 18 7 34t19.5 28.5t29 20t34.5 7.5q49 2 105 3t114 1t113.5 -1t105.5 -3q18 0 34.5 -7.5t28.5 -20 t19 -28.5t7 -34q2 -27 3 -56t1 -61zM477 76q0 -4 4 -4h39q3 0 3 4v6q4 -5 10 -8q5 -2 10.5 -3t11.5 -1q39 0 39 47v114q0 56 -41 56q-9 0 -20 -6q-4 -2 -10 -8v79q0 4 -3 4h-39q-4 0 -4 -4v-276zM734 133v15q0 4 -3 4h-40q-3 0 -3 -4v-13q0 -14 -4.5 -20.5t-9.5 -6.5 t-9.5 6.5t-4.5 20.5v33h71q3 0 3 4v55q0 26 -14 44.5t-42 18.5q-24 0 -44.5 -17.5t-20.5 -45.5v-94q0 -27 15 -47t44 -20q32 0 47 18t15 49zM477 682q23 0 37.5 -15t14.5 -38v-109q0 -27 -15 -41t-41 -14q-24 0 -39.5 15.5t-15.5 41.5v107q0 27 16.5 40t42.5 13zM332 109 q0 -17 7.5 -28t21.5 -11q13 0 26 6q8 5 15 12v-12q0 -4 4 -4h37q6 0 6 4h-2v205q0 4 -4 4h-37q-4 0 -4 -4v-154q-12 -14 -19 -14q-2 0 -4 4v164q0 4 -6 4h-37q-4 0 -4 -4v-172zM205 309h39v-233q0 -4 6 -4h43q4 0 4 4v233h39q4 0 4 4v39q0 4 -4 4h-131q-6 0 -6 -4v-39 q0 -4 6 -4zM318 750l30 -113l27 113h45l-51 -164v-117h-43v111l-53 170h45zM563 504v172h39v-158q0 -9 2 -10q1 -4 7 -4q7 0 10 4q6 3 12 12v156h39v-207h-39v23q-10 -13 -22 -19q-9 -6 -21 -6q-14 0 -20 10q-7 7 -7 27zM461 504q5 -4 12 -4q10 0 13 4q4 5 4 14v113 q0 7 -4 10q-4 4 -13 4q-6 0 -11 -3t-5 -11v-113q0 -9 4 -14zM527 244q8 2 10 2q5 0 6 -4q4 -3 4 -11v-106q0 -9 -4 -12q0 -4 -6 -4t-7.5 2t-6.5 6v123zM660 209v18q0 19 14 19q6 0 10 -4q4 -8 4 -15v-18h-28z" />
<glyph unicode="&#xf38c;" d="M215 84q-39 6 -68.5 33.5t-37.5 66.5q-15 90 -15 191t15 191q8 40 37.5 67t68.5 33q74 11 144 16.5t141 5.5t141.5 -5.5t143.5 -16.5q39 -6 68.5 -33t37.5 -67q16 -90 16 -191t-16 -191q-8 -39 -37.5 -66.5t-68.5 -33.5q-75 -11 -145 -16.5t-140 -5.5t-140 5.5t-145 16.5 zM828 195q16 85 16 180t-16 180q-7 42 -51 51q-72 10 -140 14.5t-137 4.5t-137 -4.5t-140 -14.5q-43 -9 -51 -51q-16 -85 -16 -180t16 -180q8 -43 51 -50q72 -10 140 -15t137 -5t137 5t140 15q43 7 51 50zM406 195v360l313 -180zM594 375l-125 70v-140z" />
<glyph unicode="&#xf400;" d="M600 188q-94 -63 -194 -63q-70 0 -132.5 27t-109.5 74t-74 109.5t-27 133.5t27 133.5t74 109.5t109.5 74t132.5 27q71 0 133.5 -27.5t109.5 -74t74 -109t27 -133.5q0 -99 -62 -194l230 -232l-86 -86zM156 469q0 -52 19.5 -97.5t53.5 -79.5t79.5 -53.5t97.5 -19.5 t97.5 19.5t79.5 53.5t53.5 79.5t19.5 97.5t-19.5 97.5t-53.5 79.5t-79.5 53.5t-97.5 19.5t-97.5 -19.5t-79.5 -53.5t-53.5 -79.5t-19.5 -97.5z" />
<glyph unicode="&#xf405;" d="M293 82l-86 86l205 207l-205 207l86 86l207 -205l207 205l86 -86l-205 -207l205 -207l-86 -86l-207 205z" />
<glyph unicode="&#xf413;" d="M566 441q-183 184 -441 184v125q308 0 529 -221t221 -529h-125q0 258 -184 441zM500 0q0 78 -29.5 146t-80.5 119t-119 80.5t-146 29.5v125q104 0 195.5 -39t159 -106.5t106.5 -159t39 -195.5h-125zM284 28q-14 -16 -29 -22.5t-31 -6.5q-27 0 -51.5 16.5t-37.5 41 t-11 52.5t29 50q26 30 61 30q27 0 51 -16.5t37 -41t11 -52.5t-29 -51z" />
<glyph unicode="&#xf418;" d="M406 244l426 424l86 -86l-512 -514l-261 264l86 86z" />
<glyph unicode="&#xf446;" d="M125 375q0 78 29.5 146t80.5 119t119 80.5t146 29.5t146 -29.5t119 -80.5t80.5 -119t29.5 -146t-29.5 -146t-80.5 -119t-119 -80.5t-146 -29.5t-146 29.5t-119 80.5t-80.5 119t-29.5 146zM500 125q60 0 131 31l-344 344q-37 -56 -37 -125q0 -52 19.5 -97.5t53.5 -79.5 t79.5 -53.5t97.5 -19.5zM500 625q-69 0 -125 -37l338 -338q37 56 37 125q0 52 -19.5 97.5t-53.5 79.5t-79.5 53.5t-97.5 19.5z" />
<glyph unicode="&#xf455;" d="M125 375q0 78 29.5 146t80.5 119t119 80.5t146 29.5t146 -29.5t119 -80.5t80.5 -119t29.5 -146t-29.5 -146t-80.5 -119t-119 -80.5t-146 -29.5t-146 29.5t-119 80.5t-80.5 119t-29.5 146zM375 125h250v63h-82v250h-156v-63h62v-187h-74v-63zM455 607q-17 -17 -17 -44.5 t17 -44.5q18 -18 45 -18t45 18q17 17 17 44.5t-17 44.5q-18 18 -45 18t-45 -18z" />
<glyph unicode="&#xf456;" d="M500 0q-78 0 -146 29.5t-119 80.5t-80.5 119t-29.5 146t29.5 146t80.5 119t119 80.5t146 29.5t146 -29.5t119 -80.5t80.5 -119t29.5 -146t-29.5 -146t-80.5 -119t-119 -80.5t-146 -29.5zM449 313h102l12 312h-125zM455 143q18 -18 45 -18t45 18q17 17 17 44.5t-17 44.5 q-18 18 -45 18t-45 -18q-17 -17 -17 -44.5t17 -44.5z" />
<glyph unicode="&#xf457;" d="M500 750q78 0 146 -29.5t119 -80.5t80.5 -119t29.5 -146t-29.5 -146t-80.5 -119t-119 -80.5t-146 -29.5t-146 29.5t-119 80.5t-80.5 119t-29.5 146t29.5 146t80.5 119t119 80.5t146 29.5zM301 488h86q0 22 15.5 35.5t35.5 13.5h119q21 0 35 -14.5t14 -34.5q0 -39 -43 -50 q-114 -37 -114 -137h102q0 31 43 43q105 39 105 144q0 27 -10.5 52t-29 44t-43.5 30t-53 11h-125q-28 0 -53 -11t-44 -30t-29.5 -44t-10.5 -52zM455 143q18 -18 45 -18t45 18q17 17 17 44.5t-17 44.5q-18 18 -45 18t-45 -18q-17 -17 -17 -44.5t17 -44.5z" />
<glyph d="M461 133l-47 -47l-266 266l-19 23l19 23l266 266l47 -47l-213 -211h627v-62h-627z" />
<glyph d="M752 344h-627v62h627l-213 211l47 47l266 -266l19 -23l-19 -23l-266 -266l-47 47z" />
<glyph d="M125 594v62h750v-62h-750zM125 344v62h750v-62h-750zM875 156v-62h-750v62h750z" />
<glyph d="M500 781q84 0 158 -32t129 -87t87 -129t32 -158t-32 -158t-87 -129t-129 -87t-158 -32q-85 0 -159 32t-129 87t-86.5 129t-31.5 158t31.5 158t86.5 129t129 87t159 32zM156 375q0 -72 27 -134.5t73.5 -109t109 -73.5t134.5 -27t134.5 27t109 73.5t73.5 109t27 134.5 t-27 134.5t-73.5 109t-109 73.5t-134.5 27t-134.5 -27t-109 -73.5t-73.5 -109t-27 -134.5zM398 344l125 -125l-46 -43l-200 199l200 199l46 -43l-125 -125h321v-62h-321z" />
<glyph d="M906 375q0 -84 -32 -158t-87 -129t-129 -87t-158 -32q-85 0 -159 32t-129 87t-86.5 129t-31.5 158t31.5 158t86.5 129t129 87t159 32q84 0 158 -32t129 -87t87 -129t32 -158zM156 375q0 -72 27 -134.5t73.5 -109t109 -73.5t134.5 -27t134.5 27t109 73.5t73.5 109 t27 134.5t-27 134.5t-73.5 109t-109 73.5t-134.5 27t-134.5 -27t-109 -73.5t-73.5 -109t-27 -134.5zM531 594v-321l125 125l43 -46l-199 -200l-199 200l43 46l125 -125v321h62z" />
<glyph d="M500 781q84 0 158 -32t129 -87t87 -129t32 -158t-32 -158t-87 -129t-129 -87t-158 -32q-85 0 -159 32t-129 87t-86.5 129t-31.5 158t31.5 158t86.5 129t129 87t159 32zM156 375q0 -72 27 -134.5t73.5 -109t109 -73.5t134.5 -27t134.5 27t109 73.5t73.5 109t27 134.5 t-27 134.5t-73.5 109t-109 73.5t-134.5 27t-134.5 -27t-109 -73.5t-73.5 -109t-27 -134.5zM523 574l200 -199l-200 -199l-46 43l125 125h-321v62h321l-125 125z" />
<glyph d="M500 -31q-85 0 -159 32t-129 87t-86.5 129t-31.5 158t31.5 158t86.5 129t129 87t159 32q84 0 158 -32t129 -87t87 -129t32 -158t-32 -158t-87 -129t-129 -87t-158 -32zM500 31q72 0 134.5 27t109 73.5t73.5 109t27 134.5t-27 134.5t-73.5 109t-109 73.5t-134.5 27 t-134.5 -27t-109 -73.5t-73.5 -109t-27 -134.5t27 -134.5t73.5 -109t109 -73.5t134.5 -27zM469 156v321l-125 -125l-43 46l199 200l199 -200l-43 -46l-125 125v-321h-62z" />
<glyph d="M461 133l-47 -47l-266 266l-19 23l19 23l266 266l47 -47l-213 -211h627v-62h-627z" />
<glyph d="M752 344h-627v62h627l-213 211l47 47l266 -266l19 -23l-19 -23l-266 -266l-47 47z" />
<glyph d="M94 375q0 84 31.5 158t86.5 129t129 87t159 32q84 0 158 -32t129 -87t87 -129t32 -158t-32 -158t-87 -129t-129 -87t-158 -32q-85 0 -159 32t-129 87t-86.5 129t-31.5 158zM500 719q-123 0 -219 -78l481 -489q82 97 82 223q0 72 -27 134.5t-73.5 109t-109 73.5t-134.5 27 zM156 375q0 -72 27 -134.5t73.5 -109t109 -73.5t134.5 -27q123 0 219 78l-481 489q-82 -97 -82 -223z" />
<glyph d="M125 594v62h750v-62h-750zM125 344v62h750v-62h-750zM875 156v-62h-750v62h750z" />
<glyph d="M359 688h282l47 -63h218v-562h-812v562h219zM844 125v438h-188l-47 62h-218l-37 -51l-10 -11h-188v-438h688zM633 211q-28 -28 -62.5 -41.5t-70.5 -13.5t-70.5 13.5t-62.5 41.5q-27 27 -41 62t-14 71t14 71t41 62q28 27 62.5 40.5t70.5 13.5t70.5 -13.5t62.5 -40.5 q27 -27 41 -62t14 -71t-14 -71t-41 -62zM589 433q-18 18 -41.5 27t-47.5 9t-47.5 -9t-41.5 -27t-27 -41.5t-9 -48t9 -47.5t27 -41t41.5 -27t47.5 -9t47.5 9t41.5 27t27 41t9 47.5t-9 48t-27 41.5zM228 523q9 9 21 9q9 0 17 -5.5t12.5 -13.5t3.5 -17.5t-9 -17.5 q-10 -10 -22 -10q-9 0 -17 5.5t-12 13.5t-3.5 17.5t9.5 18.5z" />
<glyph d="M688 625h218v-562h-812v562h62v31h125v-31h32l46 63h282zM844 375h-160q2 -9 3 -16.5t1 -14.5q0 -39 -14.5 -73t-40 -59.5t-60 -40.5t-73.5 -15t-73 15t-59.5 40.5t-40 59.5t-14.5 73q0 13 3 31h-160v-250h688v250zM609 625h-218l-37 -51l-10 -11h-188v-125h182 q54 93 162 93t162 -93h182v125h-188zM411 255q18 -18 41.5 -27t47.5 -9t47.5 9t41.5 27t27 41t9 47.5t-9 48t-27 41.5t-41.5 27t-47.5 9t-47.5 -9t-41.5 -27t-27 -41.5t-9 -48t9 -47.5t27 -41zM781 531v-62h-62v62h62z" />
<glyph d="M586 648l-47 -46q-47 -49 -37 -114l-51 -50q-13 32 -13 70q0 82 58 139l45 44q56 59 139 59q40 0 75.5 -15.5t62 -42t42 -62t15.5 -75.5q0 -83 -59 -139l-44 -45q-57 -58 -139 -58q-38 0 -70 13l50 51q5 -1 10 -1.5t10 -0.5q55 0 94 39l46 47q32 27 37.5 65.5t-8 74.5 t-43.5 61.5t-71 25.5q-32 0 -56 -8.5t-46 -31.5zM125 195q0 82 59 139l45 45q56 59 138 59q35 0 71 -14l-51 -51q-5 1 -10 1.5t-10 0.5q-53 0 -94 -39l-46 -47q-31 -27 -37 -65.5t7.5 -74.5t44 -61.5t70.5 -25.5q6 0 8 1q57 0 94 39l47 46q47 49 37 114l51 51q14 -36 14 -71 q0 -82 -59 -138l-45 -45q-57 -59 -139 -59q-40 0 -75.5 15.5t-62 42t-42 62t-15.5 75.5zM648 477l-250 -250l-46 46l250 250z" />
<glyph d="M781 666l-43 -45q-98 98 -238 98q-72 0 -134.5 -27t-109 -73.5t-73.5 -109t-27 -134.5t27 -134.5t73.5 -109t109 -73.5t134.5 -27t134.5 27t109 73.5t73.5 109t27 134.5q0 41 -10 78l51 51q21 -57 21 -129q0 -84 -32 -158t-87 -129t-129 -87t-158 -32q-85 0 -159 32 t-129 87t-86.5 129t-31.5 158t31.5 158t86.5 129t129 87t159 32q166 0 281 -115zM500 295l352 353l46 -46l-375 -375l-23 -20l-23 20l-157 156l47 47z" />
<glyph d="M188 63h625v369l62 62v-494h-750v750h744l-62 -62h-619v-625zM523 227l-23 -20l-23 20l-157 156l47 47l133 -135l352 353l46 -46z" />
<glyph d="M70 481l-19 23l19 21l123 123l22 20l23 -20l262 -263l262 263l23 20l22 -20l123 -123l19 -21l-19 -23l-407 -407l-23 -21l-23 21zM500 141l361 363l-76 76l-262 -262l-23 -21l-23 21l-262 262l-76 -76z" />
<glyph d="M594 773l23 20l24 -20l111 -113l21 -23l-261 -262l261 -262l-21 -23l-111 -113l-24 -20l-23 20l-375 375l-20 23l20 23zM287 375l330 -330l69 68l-264 262l264 262l-69 68z" />
<glyph d="M248 660l111 113l24 20l23 -20l375 -375l20 -23l-20 -23l-375 -375l-23 -20l-24 20l-111 113l-21 23l261 262l-261 262zM315 113l68 -68l330 330l-330 330l-68 -68l263 -262z" />
<glyph d="M477 676l23 21l23 -21l407 -406l19 -24l-19 -21l-123 -123l-22 -20l-23 20l-262 263l-262 -263l-23 -20l-22 20l-123 123l-19 21l19 24zM215 170l262 262l23 21l23 -21l262 -262l76 76l-361 363l-361 -363z" />
<glyph d="M875 375q0 -78 -29.5 -146t-80.5 -119t-119 -80.5t-146 -29.5t-146 29.5t-119 80.5t-80.5 119t-29.5 146t29.5 146t80.5 119t119 80.5t146 29.5t146 -29.5t119 -80.5t80.5 -119t29.5 -146zM813 375q0 65 -24.5 122t-67 99.5t-99.5 67t-122 24.5t-122 -24.5t-99 -67 t-66.5 -99.5t-24.5 -122t24.5 -122t66.5 -99t99 -66.5t122 -24.5t122 24.5t99.5 66.5t67 99t24.5 122z" />
<glyph d="M125 375q0 78 29.5 146t80.5 119t119 80.5t146 29.5t146 -29.5t119 -80.5t80.5 -119t29.5 -146t-29.5 -146t-80.5 -119t-119 -80.5t-146 -29.5t-146 29.5t-119 80.5t-80.5 119t-29.5 146zM500 688q-65 0 -122 -24.5t-99 -67t-66.5 -99.5t-24.5 -122t24.5 -122t66.5 -99 t99 -66.5t122 -24.5t122 24.5t99.5 66.5t67 99t24.5 122t-24.5 122t-67 99.5t-99.5 67t-122 24.5zM688 406v-62h-219v281h62v-219h157z" />
<glyph d="M313 563h531v-532h-531v532zM375 94h406v406h-406v-406zM219 656v-406h62v-62h-125v531h532v-125h-63v62h-406z" />
<glyph d="M500 420l273 275l47 -47l-275 -273l275 -273l-47 -47l-273 275l-273 -275l-47 47l275 273l-275 273l47 47z" />
<glyph d="M731 561q41 -2 77 -19t63 -44t44 -63.5t19 -77.5q66 -58 66 -138q0 -39 -14.5 -73t-40 -59.5t-59.5 -40.5t-73 -15h-625q-39 0 -73.5 15t-60 40.5t-40 59.5t-14.5 73q0 31 10 59.5t28 52t43.5 40t55.5 24.5q14 41 45 67t74 34q6 47 27 87.5t53 70.5t74 47.5t90 17.5 q39 0 74.5 -11.5t65 -32.5t53 -50t38.5 -64zM281 438q-33 0 -58 -20.5t-33 -52.5l-4 -21l-22 -4q-43 -6 -72 -40t-29 -81q0 -27 9.5 -49.5t26.5 -39.5t39.5 -26.5t49.5 -9.5h625q26 0 49 9.5t40 26.5t26.5 39.5t9.5 49.5q0 63 -51 99l-12 10v16q0 32 -12.5 60.5t-33.5 49.5 t-49.5 33.5t-60.5 12.5h-31l-8 23q-18 60 -66.5 96.5t-113.5 36.5q-39 0 -73 -14.5t-59.5 -40t-40 -59.5t-14.5 -73v-31h-32zM398 367l71 -72v205h62v-205l71 72l46 -47l-125 -125l-23 -19l-23 19l-125 125z" />
<glyph d="M781 125h-375q-39 0 -66 27.5t-27 66.5v562h562v-125h63q39 0 66 -27t27 -66v-94q0 -39 -27 -66.5t-66 -27.5h-63v-156q0 -19 -7.5 -36.5t-20 -30t-29.5 -20t-37 -7.5zM813 219v500h-438v-500q0 -14 8.5 -22.5t22.5 -8.5h375q14 0 23 8.5t9 22.5zM938 438q14 0 22.5 8.5 t8.5 22.5v94q0 14 -8.5 22.5t-22.5 8.5h-63v-156h63zM563 813h-63v125h63v-125zM625 906h63v-93h-63v93z" />
<glyph d="M688 719v-500h-301l-149 -117l-50 -43v160h-125v500h625zM356 273l7 8h262v375h-500v-375h125v-90zM324 94l78 62h235l113 -90v90h125v375h-125v63h188v-500h-125v-160l-200 160h-289z" />
<glyph d="M523 133l-23 -20l-23 20l-219 219l47 46l164 -166v518h62v-518l164 166l47 -46zM781 0h-562v63h562v-63z" />
<glyph d="M125 375q0 78 29.5 146t80.5 119t119 80.5t146 29.5t146 -29.5t119 -80.5t80.5 -119t29.5 -146t-29.5 -146t-80.5 -119t-119 -80.5t-146 -29.5t-146 29.5t-119 80.5t-80.5 119t-29.5 146zM188 375q0 -65 24.5 -122t66.5 -99t99 -66.5t122 -24.5t122 24.5t99.5 66.5t67 99 t24.5 122t-24.5 122t-67 99.5t-99.5 67t-122 24.5t-122 -24.5t-99 -67t-66.5 -99.5t-24.5 -122zM469 313v250h62v-250h-62zM469 188v62h62v-62h-62z" />
<glyph d="M500 773l430 -742h-860zM180 94h640l-320 554zM531 438v-188h-62v188h62zM469 219h62v-63h-62v63z" />
<glyph d="M875 375q0 -78 -29.5 -146t-80.5 -119t-119 -80.5t-146 -29.5t-146 29.5t-119 80.5t-80.5 119t-29.5 146t29.5 146t80.5 119t119 80.5t146 29.5t146 -29.5t119 -80.5t80.5 -119t29.5 -146zM500 688l-25 -2l68 -6l18 -71l-94 -19l-26 35l-54 -12l19 -82l-125 -58l-84 -67 l30 -62h117l125 -94l-31 -125l33 -60q11 -2 18 -2h11q72 0 135 31l49 156q-22 55 -26 55l-64 -10l-63 49l32 94l54 41l55 7l51 -31l19 39l-82 28l-68 -22l-6 65l27 23l35 -14l-7 63l27 2q-80 49 -168 49zM402 78l-87 110h-38l-58 62v66l-29 36q4 -48 21 -91.5t45 -79.5 t65 -62.5t81 -40.5zM416 664l49 22q-39 -4 -72 -18z" />
<glyph d="M176 313q-16 0 -31 7t-26.5 19t-18 28.5t-6.5 34.5v14l8 10l211 211v176h500v-528q0 -31 -20.5 -57.5t-54.5 -32.5l-238 -52v-112q0 -19 -7.5 -36.5t-20 -30t-29.5 -20t-37 -7.5q-39 0 -66 27.5t-27 66.5v336l-24 -6q-21 -26 -50.5 -37t-62.5 -11zM375 449v-418 q0 -31 31 -31q32 0 32 31v162l23 6l266 55q23 6 23 31v309h-394l-196 -199q3 -20 16 -20q36 0 58 16l20 25l12 4zM750 750h-375v-94h375v94z" />
<glyph d="M410 63q-31 0 -57.5 20t-32.5 54l-52 238h-112q-39 0 -66 27.5t-27 66.5t27 66.5t66 27.5h336l-6 23q-26 21 -37 50.5t-11 62.5q0 34 26 58t63 24h14l10 -8l211 -210h176v-500h-528zM379 148q6 -23 31 -23h309v395l-199 195q-20 -2 -20 -16q0 -36 16 -58l25 -20l4 -12 l29 -109h-418q-31 0 -31 -31t31 -31h162l6 -24zM781 125h94v375h-94v-375z" />
<glyph d="M459 781h14q37 0 63.5 -24t26.5 -58q0 -33 -11.5 -62.5t-37.5 -50.5l-6 -23h336q39 0 66.5 -27.5t27.5 -66.5q0 -19 -7.5 -36.5t-20 -30t-29.5 -20t-37 -7.5h-112l-52 -238q-6 -34 -32 -54t-58 -20h-527v500h175l211 210zM438 539l17 70l4 12l10 8q6 2 15 12q16 22 16 58 q0 15 -19 16l-200 -195v-395h309q25 0 31 23l55 266l6 24h162q31 0 31 31t-31 31h-418zM125 125h94v375h-94v-375z" />
<glyph d="M289 389l24 -6v336q0 19 7 36t19.5 29.5t29 20t35.5 7.5q18 0 35.5 -6.5t31 -19t21.5 -29.5t8 -38v-112l238 -52q34 -6 54.5 -32t20.5 -58v-528h-500v176l-211 211l-8 10v14q0 18 6.5 34.5t18 29t26.5 19.5t31 7q33 0 62.5 -11.5t50.5 -37.5zM266 330l-12 4l-8 10 q-1 6 -12 15q-22 16 -58 16q-13 0 -16 -19l196 -200h394v309q0 25 -23 31l-266 55l-23 6v162q0 31 -32 31q-31 0 -31 -31v-418l-39 12zM750 0v94h-375v-94h375z" />
<glyph d="M500 629q99 90 203 90q48 0 91 -18.5t75 -50.5t50.5 -74.5t18.5 -91.5q0 -19 -7 -41.5t-18 -43.5t-24.5 -40t-27.5 -33l-361 -359l-361 359q-14 14 -28 33.5t-24.5 40.5t-17 43t-6.5 41q0 49 18.5 91.5t50 74.5t74.5 50.5t91 18.5q104 0 203 -90z" />
<glyph d="M500 -35l-359 363q-16 14 -30 32.5t-24.5 39t-17 42t-6.5 42.5q0 49 18.5 91.5t50 74.5t74 50.5t91.5 18.5q113 0 203 -92q90 92 203 92q49 0 91.5 -18.5t74.5 -50.5t50.5 -74.5t18.5 -91.5q0 -19 -5.5 -39.5t-14 -39t-19 -34t-20.5 -25.5l-20 -18zM184 371l316 -316 l316 316q59 63 59 113q0 35 -13.5 66.5t-37 55t-55 37t-66.5 13.5q-21 0 -43 -6.5t-43 -16t-39 -21.5t-31 -24l-24 -22l-23 -27l-23 27q-16 17 -38 33t-46 28.5t-48.5 20.5t-47.5 8q-35 0 -66.5 -13.5t-55 -37t-37 -55t-13.5 -66.5q0 -32 27 -76z" />
<glyph d="M156 0v361l-39 -41l-47 47l407 406l23 20l23 -20l407 -406l-47 -47l-39 41v-361h-281v313h-125v-313h-282zM219 424v-361h156v312h250v-312h156v361l-281 281z" />
<glyph d="M94 375q0 84 31.5 158t86.5 129t129 87t159 32q84 0 158 -32t129 -87t87 -129t32 -158t-32 -158t-87 -129t-129 -87t-158 -32q-85 0 -159 32t-129 87t-86.5 129t-31.5 158zM156 375q0 -72 27 -134.5t73.5 -109t109 -73.5t134.5 -27t134.5 27t109 73.5t73.5 109t27 134.5 t-27 134.5t-73.5 109t-109 73.5t-134.5 27t-134.5 -27t-109 -73.5t-73.5 -109t-27 -134.5zM469 188v250h62v-250h-62zM469 500v63h62v-63h-62z" />
<glyph d="M125 594v62h750v-62h-750zM125 344v62h750v-62h-750zM875 156v-62h-750v62h750z" />
<glyph d="M500 750q78 0 146 -29.5t119 -80.5t80.5 -119t29.5 -146t-29.5 -146t-80.5 -119t-119 -80.5t-146 -29.5t-146 29.5t-119 80.5t-80.5 119t-29.5 146t29.5 146t80.5 119t119 80.5t146 29.5zM500 63q65 0 122 24.5t99.5 66.5t67 99t24.5 122t-24.5 122t-67 99.5t-99.5 67 t-122 24.5t-122 -24.5t-99 -67t-66.5 -99.5t-24.5 -122t24.5 -122t66.5 -99t99 -66.5t122 -24.5zM750 375l-375 -215v430zM625 375l-187 107v-214z" />
<glyph d="M906 375q0 -84 -32 -158t-87 -129t-129 -87t-158 -32q-85 0 -159 32t-129 87t-86.5 129t-31.5 158t31.5 158t86.5 129t129 87t159 32q84 0 158 -32t129 -87t87 -129t32 -158zM156 375q0 -72 27 -134.5t73.5 -109t109 -73.5t134.5 -27t134.5 27t109 73.5t73.5 109 t27 134.5t-27 134.5t-73.5 109t-109 73.5t-134.5 27t-134.5 -27t-109 -73.5t-73.5 -109t-27 -134.5zM531 344v-156h-62v156h-156v62h156v157h62v-157h157v-62h-157z" />
<glyph d="M156 31v688h688v-688h-688zM219 656v-562h562v562h-562zM344 344v62h125v125h62v-125h125v-62h-125v-125h-62v125h-125z" />
<glyph d="M281 125h-156v313q0 39 27.5 66t66.5 27h62v219h438v-219h62q39 0 66.5 -27t27.5 -66v-313h-156v-125h-438v125zM281 313h438v-125h94v250q0 31 -32 31h-562q-31 0 -31 -31v-250h93v125zM656 63v187h-312v-187h312zM344 531h312v157h-312v-157zM228 429q9 9 21 9 q9 0 17 -5.5t12.5 -13.5t3.5 -17.5t-9 -17.5q-9 -9 -22 -9q-9 0 -17 5t-12 13t-3.5 17.5t9.5 18.5z" />
<glyph d="M875 375q0 -78 -29.5 -146t-80.5 -119t-119 -80.5t-146 -29.5t-146 29.5t-119 80.5t-80.5 119t-29.5 146t29.5 146t80.5 119t119 80.5t146 29.5t146 -29.5t119 -80.5t80.5 -119t29.5 -146zM500 688q-65 0 -122 -24.5t-99 -67t-66.5 -99.5t-24.5 -122t24.5 -122t66.5 -99 t99 -66.5t122 -24.5t122 24.5t99.5 66.5t67 99t24.5 122t-24.5 122t-67 99.5t-99.5 67t-122 24.5zM438 438h-63q0 51 37 87q17 20 38.5 29t44.5 9q25 0 49 -9.5t42.5 -26t29.5 -39.5t9 -50q0 -38 -22.5 -69t-59.5 -45l-12 -4v-39h-62v39q0 48 43 61l11 4q40 12 40 53 q1 30 -19 45t-44 15t-43.5 -15t-18.5 -45zM469 188v62h62v-62h-62z" />
<glyph d="M125 438q0 39 14.5 73t40 59.5t60 40t73.5 14.5v-62q-27 0 -49.5 -9.5t-39.5 -26.5t-26.5 -40t-9.5 -49h250v-313h-313v313zM563 438q0 39 14.5 73t40 59.5t59.5 40t73 14.5v-62q-26 0 -49 -9.5t-40 -26.5t-26.5 -40t-9.5 -49h250v-313h-312v313zM625 188h188v187h-188 v-187zM188 375v-187h187v187h-187z" />
<glyph d="M563 625h312v-312q0 -39 -14.5 -73.5t-40 -60t-59.5 -40t-73 -14.5v63q26 0 49 9.5t40 26.5t26.5 39.5t9.5 49.5h-250v312zM438 625v-312q0 -39 -14.5 -73.5t-40 -60t-60 -40t-73.5 -14.5v63q26 0 49 9.5t40 26.5t26.5 39.5t9.5 49.5h-250v312h313zM625 563v-188h188v188 h-188zM375 375v188h-187v-188h187z" />
<glyph d="M594 781q65 0 122 -24.5t99 -66.5t66.5 -99t24.5 -122t-24.5 -122t-66.5 -99.5t-99 -67t-122 -24.5q-111 0 -197 71l-249 -250l-46 46l250 249q-71 86 -71 197q0 65 24.5 122t67 99t99.5 66.5t122 24.5zM344 469q0 -52 19.5 -97.5t53.5 -79.5t79.5 -53.5t97.5 -19.5 t97.5 19.5t79.5 53.5t53.5 79.5t19.5 97.5t-19.5 97.5t-53.5 79.5t-79.5 53.5t-97.5 19.5t-97.5 -19.5t-79.5 -53.5t-53.5 -79.5t-19.5 -97.5z" />
<glyph d="M625 629q42 -18 76.5 -47t59.5 -66.5t38.5 -81t13.5 -90.5v-16q62 -38 62 -109q0 -25 -10 -48t-27 -40t-39.5 -27t-48.5 -10q-27 0 -51 12q-44 -38 -95 -56.5t-104 -18.5t-104 18.5t-95 56.5q-24 -12 -51 -12q-25 0 -48 10t-40 27t-27 40t-10 48q0 70 63 107v18 q0 47 13.5 90.5t38 81t59 66.5t76.5 47q2 24 11.5 46t25.5 38.5t37.5 26.5t46.5 10q24 0 47 -9t41.5 -25t29.5 -38t11 -49zM750 344q0 36 -10 69.5t-28.5 62.5t-44.5 52t-58 38q-34 -66 -109 -66q-74 0 -109 66q-32 -15 -58 -38t-44.5 -52t-28.5 -62.5t-10 -69.5 q26 0 48.5 -10t39.5 -27t27 -39.5t10 -48.5q0 -42 -25 -74q33 -26 71.5 -38.5t78.5 -12.5t78.5 12.5t71.5 38.5q-25 34 -25 74q0 26 10 48.5t27 39.5t40 27t48 10zM206 175q19 -19 42 -19q18 0 33.5 10.5t24 26.5t7 35t-18.5 35q-10 10 -20.5 14t-21.5 4q-18 0 -33.5 -10.5 t-24 -26t-6.5 -34t18 -35.5zM706 175q19 -19 42 -19q18 0 33.5 10.5t24 26.5t7 35t-18.5 35q-10 10 -20.5 14t-21.5 4q-18 0 -33.5 -10.5t-24 -26t-6.5 -34t18 -35.5zM544 669q-10 10 -20.5 14t-21.5 4q-18 0 -33.5 -10.5t-24 -26t-6.5 -34t18 -35.5q10 -10 20.5 -14 t21.5 -4q18 0 33.5 10.5t24 26t7 34.5t-18.5 35z" />
<glyph d="M500 809l131 -293l316 -34l-236 -212l66 -313l-277 158l-277 -158l66 313l-236 212l316 34z" />
<glyph d="M133 305l-20 23l20 22l357 361l10 8h344v-344l-8 -10l-361 -357l-22 -20l-23 20zM199 328l254 -254l328 328v254h-254zM665 585q9 9 21 9q9 0 17 -5.5t12.5 -13.5t3.5 -17.5t-9 -17.5q-9 -9 -21 -9q-9 0 -17 5.5t-12.5 13.5t-3.5 17.5t9 17.5z" />
<glyph d="M424 164l6 24h-180q-22 0 -41.5 9.5t-32 25.5t-18 36.5t-0.5 41.5l69 312q5 34 31.5 54.5t57.5 20.5h528v-500h-145l-220 -219h-14q-19 0 -35.5 6.5t-28.5 18t-19 26.5t-7 31q0 33 11.5 62.5t37.5 50.5zM457 35l199 196v394h-340q-25 0 -31 -23l-66 -313 q-2 -16 6.5 -27.5t24.5 -11.5h262l-12 -39l-21 -82l-10 -8q-5 -1 -16 -12q-15 -22 -15 -58q0 -13 19 -16zM719 250h62v375h-62v-375z" />
<glyph d="M522 781h13q38 0 64 -24t26 -58q0 -33 -11.5 -62.5t-37.5 -50.5l-6 -23h180q23 0 42 -9.5t31.5 -25.5t18 -36.5t0.5 -42.5l-69 -312q-5 -34 -31.5 -54t-57.5 -20h-528v500h145l211 210zM488 500l12 39l18 70l4 12l9 8q5 1 16 12q16 24 16 58q0 14 -20 16l-199 -195v-395 h340q25 0 31 23l66 313q2 16 -6.5 27.5t-24.5 11.5h-262zM219 500v-375h62v375h-62z" />
<glyph d="M162 137q108 0 192 66q-51 0 -90 30t-55 78q12 -4 29 -4q22 0 41 6q-27 6 -50 19.5t-39.5 33.5t-26 45t-9.5 52v2q31 -17 71 -20q-69 48 -69 129q0 43 22 78q123 -152 316 -162q-2 9 -3 18t-1 17q0 32 12 60.5t33 49.5t49.5 33t60.5 12q65 0 111 -49q51 9 98 37 q-18 -54 -67 -84q23 3 44.5 9t43.5 14q-31 -45 -76 -80v-19q0 -51 -13 -103.5t-38 -101t-62 -91t-86 -74t-108.5 -50t-130.5 -18.5q-128 0 -236 69q9 -2 18 -2h19z" />
<glyph d="M742 523l-47 -46l-164 166v-518h-62v518l-164 -166l-47 46l219 219l23 20l23 -20zM781 0h-562v63h562v-63z" />
<glyph d="M469 281q-52 0 -97.5 -19.5t-79.5 -53.5t-53.5 -79.5t-19.5 -97.5h-63q0 48 14 92t39 81t60.5 66.5t78.5 47.5q-45 29 -71.5 78t-26.5 104q0 45 17 85t47 70t70 47t85 17t84.5 -17.5t69.5 -47.5t47.5 -69.5t17.5 -84.5q0 -55 -26.5 -104t-71.5 -78q43 -18 78 -47.5 t60 -66.5t39 -81t14 -92h-62q0 52 -19.5 97.5t-53.5 79.5t-79.5 53.5t-97.5 19.5zM579 390q23 23 34.5 51.5t11.5 58.5t-11.5 58.5t-34.5 51.5t-51.5 34.5t-58.5 11.5t-59 -11.5t-52 -34.5t-34.5 -51.5t-11.5 -58.5t11.5 -58.5t34.5 -51.5t52 -34.5t59 -11.5t58.5 11.5 t51.5 34.5z" />
<glyph d="M500 773l430 -742h-860zM180 94h640l-320 554zM531 438v-188h-62v188h62zM469 219h62v-63h-62v63z" />
<glyph d="M875 377q0 -78 -29 -146t-79.5 -118.5t-118.5 -79.5t-146 -29q-96 0 -180 45l-197 -53l53 194q-49 86 -49 187q0 78 29 146t79.5 118.5t118.5 79.5t146 29t146 -29t118.5 -79.5t79.5 -118.5t29 -146zM502 688q-65 0 -121.5 -24.5t-98.5 -66.5t-66.5 -98.5t-24.5 -121.5 q0 -89 47 -166l8 -12l-31 -113l117 29l12 -6q74 -43 158 -43q65 0 121.5 24.5t98.5 66.5t66.5 98.5t24.5 121.5t-24.5 121.5t-66.5 98.5t-98.5 66.5t-121.5 24.5zM510 223q-27 11 -61.5 37t-64.5 59.5t-50.5 70t-20.5 69.5q0 11 3.5 26t11 29.5t18 24.5t23.5 10h18 q15 0 21 -16q2 -5 7 -16.5t10 -23.5q6 -14 13 -30q3 -7 0 -16q-7 -12 -10 -15q-3 -4 -5.5 -7t-4.5 -5l-4 -4q-10 -10 -4 -19q22 -40 53 -65q5 -5 16.5 -13t24.5 -16t25 -14t18 -6t10 4q11 13 19 22t12 15q3 6 10 6q6 0 9 -2q5 -1 17.5 -6.5t27 -12.5t26 -13t12.5 -9 q5 -9 -6 -43q-3 -11 -13 -20t-22.5 -15t-26 -9t-24.5 -3q-18 0 -35 6q-29 7 -53 20z" />
<glyph d="M809 719l35 4v-696l-35 4l-625 88l-28 2v508l28 2zM500 344v-207l281 -39v246h-281zM781 406v246l-281 -39v-207h281zM219 176l219 -29v197h-219v-168zM219 406h219v198l-219 -30v-168z" />
<glyph d="M781 211q0 -32 -1 -61t-3 -56q0 -38 -26 -64t-63 -26q-51 -2 -105.5 -3t-113.5 -1q-60 0 -114.5 1t-104.5 3q-37 0 -63.5 26t-26.5 64q-2 26 -3 55.5t-1 61.5t1 61t3 56q0 18 7 34t19.5 28.5t29 20t34.5 7.5q49 2 105 3t114 1t113.5 -1t105.5 -3q18 0 34.5 -7.5t28.5 -20 t19 -28.5t7 -34q2 -27 3 -56t1 -61zM477 76q0 -4 4 -4h39q3 0 3 4v6q4 -5 10 -8q5 -2 10.5 -3t11.5 -1q39 0 39 47v114q0 56 -41 56q-9 0 -20 -6q-4 -2 -10 -8v79q0 4 -3 4h-39q-4 0 -4 -4v-276zM734 133v15q0 4 -3 4h-40q-3 0 -3 -4v-13q0 -14 -4.5 -20.5t-9.5 -6.5 t-9.5 6.5t-4.5 20.5v33h71q3 0 3 4v55q0 26 -14 44.5t-42 18.5q-24 0 -44.5 -17.5t-20.5 -45.5v-94q0 -27 15 -47t44 -20q32 0 47 18t15 49zM477 682q23 0 37.5 -15t14.5 -38v-109q0 -27 -15 -41t-41 -14q-24 0 -39.5 15.5t-15.5 41.5v107q0 27 16.5 40t42.5 13zM332 109 q0 -17 7.5 -28t21.5 -11q13 0 26 6q8 5 15 12v-12q0 -4 4 -4h37q6 0 6 4h-2v205q0 4 -4 4h-37q-4 0 -4 -4v-154q-12 -14 -19 -14q-2 0 -4 4v164q0 4 -6 4h-37q-4 0 -4 -4v-172zM205 309h39v-233q0 -4 6 -4h43q4 0 4 4v233h39q4 0 4 4v39q0 4 -4 4h-131q-6 0 -6 -4v-39 q0 -4 6 -4zM318 750l30 -113l27 113h45l-51 -164v-117h-43v111l-53 170h45zM563 504v172h39v-158q0 -9 2 -10q1 -4 7 -4q7 0 10 4q6 3 12 12v156h39v-207h-39v23q-10 -13 -22 -19q-9 -6 -21 -6q-14 0 -20 10q-7 7 -7 27zM461 504q5 -4 12 -4q10 0 13 4q4 5 4 14v113 q0 7 -4 10q-4 4 -13 4q-6 0 -11 -3t-5 -11v-113q0 -9 4 -14zM527 244q8 2 10 2q5 0 6 -4q4 -3 4 -11v-106q0 -9 -4 -12q0 -4 -6 -4t-7.5 2t-6.5 6v123zM660 209v18q0 19 14 19q6 0 10 -4q4 -8 4 -15v-18h-28z" />
<glyph d="M215 84q-39 6 -68.5 33.5t-37.5 66.5q-15 90 -15 191t15 191q8 40 37.5 67t68.5 33q74 11 144 16.5t141 5.5t141.5 -5.5t143.5 -16.5q39 -6 68.5 -33t37.5 -67q16 -90 16 -191t-16 -191q-8 -39 -37.5 -66.5t-68.5 -33.5q-75 -11 -145 -16.5t-140 -5.5t-140 5.5t-145 16.5 zM828 195q16 85 16 180t-16 180q-7 42 -51 51q-72 10 -140 14.5t-137 4.5t-137 -4.5t-140 -14.5q-43 -9 -51 -51q-16 -85 -16 -180t16 -180q8 -43 51 -50q72 -10 140 -15t137 -5t137 5t140 15q43 7 51 50zM406 195v360l313 -180zM594 375l-125 70v-140z" />
</font>
</defs>
</svg>
